<mxfile host="app.diagrams.net" modified="2024-03-21T12:39:06.117Z" agent="Mozilla/5.0 (Windows NT 10.0; Win64; x64; rv:104.0) Gecko/20100101 Firefox/104.0" etag="wmmGDqdCk4PgY5zj0A4I" version="24.0.7" type="device">
  <diagram name="Page-1" id="-r8ovpFvfbRZgw_R8LUI">
    <mxGraphModel dx="-1742" dy="-1347" grid="1" gridSize="10" guides="1" tooltips="1" connect="1" arrows="1" fold="1" page="1" pageScale="1" pageWidth="850" pageHeight="1100" math="0" shadow="0">
      <root>
        <mxCell id="0" />
        <mxCell id="1" parent="0" />
        <mxCell id="DGbr0V82XCEzaRGhNptX-1" style="edgeStyle=orthogonalEdgeStyle;rounded=0;orthogonalLoop=1;jettySize=auto;html=1;exitX=0.5;exitY=1;exitDx=0;exitDy=0;entryX=0.5;entryY=0;entryDx=0;entryDy=0;" edge="1" parent="1" source="DGbr0V82XCEzaRGhNptX-2" target="DGbr0V82XCEzaRGhNptX-4">
          <mxGeometry relative="1" as="geometry" />
        </mxCell>
        <mxCell id="DGbr0V82XCEzaRGhNptX-2" value="&lt;div&gt;&lt;b&gt;INIT&lt;/b&gt;: &lt;br&gt;&lt;/div&gt;&lt;div&gt;Initialize local variables and setup&lt;/div&gt;" style="rounded=0;whiteSpace=wrap;html=1;" vertex="1" parent="1">
          <mxGeometry x="4050.1000000000004" y="2360" width="140" height="59" as="geometry" />
        </mxCell>
        <mxCell id="DGbr0V82XCEzaRGhNptX-3" style="edgeStyle=orthogonalEdgeStyle;rounded=0;orthogonalLoop=1;jettySize=auto;html=1;exitX=0.5;exitY=1;exitDx=0;exitDy=0;entryX=0.5;entryY=0;entryDx=0;entryDy=0;" edge="1" parent="1" source="DGbr0V82XCEzaRGhNptX-4" target="DGbr0V82XCEzaRGhNptX-9">
          <mxGeometry relative="1" as="geometry" />
        </mxCell>
        <mxCell id="DGbr0V82XCEzaRGhNptX-4" value="&lt;div&gt;&lt;b&gt;SEND_REGISTER: &lt;/b&gt;&lt;br&gt;&lt;/div&gt;&lt;div&gt;Send registration request to USC&lt;/div&gt;" style="rounded=0;whiteSpace=wrap;html=1;" vertex="1" parent="1">
          <mxGeometry x="4050.05" y="2440" width="140" height="60" as="geometry" />
        </mxCell>
        <mxCell id="DGbr0V82XCEzaRGhNptX-5" style="edgeStyle=orthogonalEdgeStyle;rounded=0;orthogonalLoop=1;jettySize=auto;html=1;exitX=0.5;exitY=1;exitDx=0;exitDy=0;entryX=0.5;entryY=0;entryDx=0;entryDy=0;" edge="1" parent="1" source="DGbr0V82XCEzaRGhNptX-9" target="DGbr0V82XCEzaRGhNptX-13">
          <mxGeometry relative="1" as="geometry" />
        </mxCell>
        <mxCell id="DGbr0V82XCEzaRGhNptX-6" value="&lt;div style=&quot;font-size: 10px;&quot;&gt;&lt;font style=&quot;font-size: 10px;&quot;&gt;&lt;i&gt;(Receive REGISTERED&lt;/i&gt;&lt;/font&gt;&lt;/div&gt;&lt;div style=&quot;font-size: 10px;&quot;&gt;&lt;font style=&quot;font-size: 10px;&quot;&gt;&lt;i&gt;with keyshare)&lt;br&gt;&lt;/i&gt;&lt;/font&gt;&lt;/div&gt;" style="edgeLabel;html=1;align=center;verticalAlign=middle;resizable=0;points=[];" vertex="1" connectable="0" parent="DGbr0V82XCEzaRGhNptX-5">
          <mxGeometry x="-0.1333" relative="1" as="geometry">
            <mxPoint as="offset" />
          </mxGeometry>
        </mxCell>
        <mxCell id="DGbr0V82XCEzaRGhNptX-7" style="edgeStyle=orthogonalEdgeStyle;rounded=0;orthogonalLoop=1;jettySize=auto;html=1;exitX=1;exitY=0.5;exitDx=0;exitDy=0;entryX=0.75;entryY=0;entryDx=0;entryDy=0;" edge="1" parent="1" source="DGbr0V82XCEzaRGhNptX-9" target="DGbr0V82XCEzaRGhNptX-127">
          <mxGeometry relative="1" as="geometry">
            <mxPoint x="4289.98" y="2630" as="targetPoint" />
          </mxGeometry>
        </mxCell>
        <mxCell id="DGbr0V82XCEzaRGhNptX-8" value="&lt;div style=&quot;font-size: 10px;&quot;&gt;&lt;font style=&quot;font-size: 10px;&quot;&gt;&lt;i&gt;(Timeout, or&lt;/i&gt;&lt;/font&gt;&lt;/div&gt;&lt;div style=&quot;font-size: 10px;&quot;&gt;&lt;font style=&quot;font-size: 10px;&quot;&gt;&lt;i&gt;receive NOT_&lt;/i&gt;&lt;/font&gt;&lt;/div&gt;&lt;div style=&quot;font-size: 10px;&quot;&gt;&lt;font style=&quot;font-size: 10px;&quot;&gt;&lt;i&gt;REGISTERED)&lt;br&gt;&lt;/i&gt;&lt;/font&gt;&lt;/div&gt;" style="edgeLabel;html=1;align=center;verticalAlign=middle;resizable=0;points=[];" vertex="1" connectable="0" parent="DGbr0V82XCEzaRGhNptX-7">
          <mxGeometry x="-0.2823" y="2" relative="1" as="geometry">
            <mxPoint x="-17" y="2" as="offset" />
          </mxGeometry>
        </mxCell>
        <mxCell id="DGbr0V82XCEzaRGhNptX-9" value="&lt;div&gt;&lt;b&gt;RECV_REGISTER&lt;/b&gt;:&lt;/div&gt;&lt;div&gt;Receive registration info (public/private key pair) from USC&lt;br&gt;&lt;/div&gt;" style="rounded=0;whiteSpace=wrap;html=1;" vertex="1" parent="1">
          <mxGeometry x="4050.1000000000004" y="2520" width="140" height="60" as="geometry" />
        </mxCell>
        <mxCell id="DGbr0V82XCEzaRGhNptX-10" value="" style="edgeStyle=orthogonalEdgeStyle;rounded=0;orthogonalLoop=1;jettySize=auto;html=1;" edge="1" parent="1" source="DGbr0V82XCEzaRGhNptX-13" target="DGbr0V82XCEzaRGhNptX-16">
          <mxGeometry relative="1" as="geometry" />
        </mxCell>
        <mxCell id="DGbr0V82XCEzaRGhNptX-11" style="edgeStyle=orthogonalEdgeStyle;rounded=0;orthogonalLoop=1;jettySize=auto;html=1;exitX=1;exitY=0.5;exitDx=0;exitDy=0;entryX=0.75;entryY=1;entryDx=0;entryDy=0;" edge="1" parent="1" source="DGbr0V82XCEzaRGhNptX-16" target="DGbr0V82XCEzaRGhNptX-127">
          <mxGeometry relative="1" as="geometry">
            <mxPoint x="4289.98" y="2670" as="targetPoint" />
          </mxGeometry>
        </mxCell>
        <mxCell id="DGbr0V82XCEzaRGhNptX-12" value="&lt;div style=&quot;font-size: 10px;&quot;&gt;&lt;font style=&quot;font-size: 10px;&quot;&gt;&lt;i&gt;(Timeout, or &lt;br&gt;&lt;/i&gt;&lt;/font&gt;&lt;/div&gt;&lt;div style=&quot;font-size: 10px;&quot;&gt;&lt;font style=&quot;font-size: 10px;&quot;&gt;&lt;i&gt;receive TASKS&lt;/i&gt;&lt;/font&gt;&lt;/div&gt;&lt;div style=&quot;font-size: 10px;&quot;&gt;&lt;font style=&quot;font-size: 10px;&quot;&gt;&lt;i&gt;with 0 tasks w/ &lt;br&gt;&lt;/i&gt;&lt;/font&gt;&lt;/div&gt;&lt;div style=&quot;font-size: 10px;&quot;&gt;&lt;font style=&quot;font-size: 10px;&quot;&gt;&lt;i&gt;state=&quot;Available&quot;)&lt;br&gt;&lt;/i&gt;&lt;/font&gt;&lt;/div&gt;" style="edgeLabel;html=1;align=center;verticalAlign=middle;resizable=0;points=[];" vertex="1" connectable="0" parent="DGbr0V82XCEzaRGhNptX-11">
          <mxGeometry x="-0.0828" relative="1" as="geometry">
            <mxPoint x="-24" as="offset" />
          </mxGeometry>
        </mxCell>
        <mxCell id="DGbr0V82XCEzaRGhNptX-13" value="&lt;div&gt;&lt;b&gt;SEND_QUERY_TASKS&lt;/b&gt;:&lt;/div&gt;&lt;div&gt;Send request to TSC for list of all active tasks&lt;br&gt;&lt;/div&gt;" style="rounded=0;whiteSpace=wrap;html=1;" vertex="1" parent="1">
          <mxGeometry x="4050.05" y="2620" width="140" height="60" as="geometry" />
        </mxCell>
        <mxCell id="DGbr0V82XCEzaRGhNptX-14" value="" style="edgeStyle=orthogonalEdgeStyle;rounded=0;orthogonalLoop=1;jettySize=auto;html=1;" edge="1" parent="1" source="DGbr0V82XCEzaRGhNptX-16" target="DGbr0V82XCEzaRGhNptX-18">
          <mxGeometry relative="1" as="geometry" />
        </mxCell>
        <mxCell id="DGbr0V82XCEzaRGhNptX-15" value="&lt;div style=&quot;font-size: 10px;&quot;&gt;&lt;i&gt;&lt;font style=&quot;font-size: 10px;&quot;&gt;(Receive TASKS with 1+&lt;/font&gt;&lt;/i&gt;&lt;/div&gt;&lt;div style=&quot;font-size: 10px;&quot;&gt;&lt;i&gt;&lt;font style=&quot;font-size: 10px;&quot;&gt;task w/ state=&quot;Available&quot;)&lt;br&gt;&lt;/font&gt;&lt;/i&gt;&lt;/div&gt;" style="edgeLabel;html=1;align=center;verticalAlign=middle;resizable=0;points=[];" vertex="1" connectable="0" parent="DGbr0V82XCEzaRGhNptX-14">
          <mxGeometry x="-0.0889" y="-1" relative="1" as="geometry">
            <mxPoint as="offset" />
          </mxGeometry>
        </mxCell>
        <mxCell id="DGbr0V82XCEzaRGhNptX-16" value="&lt;div&gt;&lt;b&gt;RECV_QUERY_TASKS&lt;/b&gt;:&lt;/div&gt;&lt;div&gt;Await response for task request from TSC&lt;br&gt;&lt;/div&gt;" style="rounded=0;whiteSpace=wrap;html=1;" vertex="1" parent="1">
          <mxGeometry x="4050.05" y="2700" width="140" height="60" as="geometry" />
        </mxCell>
        <mxCell id="DGbr0V82XCEzaRGhNptX-17" value="" style="edgeStyle=orthogonalEdgeStyle;rounded=0;orthogonalLoop=1;jettySize=auto;html=1;" edge="1" parent="1" source="DGbr0V82XCEzaRGhNptX-18" target="DGbr0V82XCEzaRGhNptX-27">
          <mxGeometry relative="1" as="geometry" />
        </mxCell>
        <mxCell id="DGbr0V82XCEzaRGhNptX-18" value="&lt;div&gt;&lt;b&gt;SEND_CONFIRM_TASK&lt;/b&gt;:&lt;/div&gt;&lt;div&gt;For next selected task, send message with confirm request to TSC&lt;br&gt;&lt;/div&gt;" style="rounded=0;whiteSpace=wrap;html=1;" vertex="1" parent="1">
          <mxGeometry x="4050.05" y="2800" width="140" height="60" as="geometry" />
        </mxCell>
        <mxCell id="DGbr0V82XCEzaRGhNptX-19" value="" style="edgeStyle=orthogonalEdgeStyle;rounded=0;orthogonalLoop=1;jettySize=auto;html=1;" edge="1" parent="1" source="DGbr0V82XCEzaRGhNptX-27" target="DGbr0V82XCEzaRGhNptX-118">
          <mxGeometry relative="1" as="geometry" />
        </mxCell>
        <mxCell id="DGbr0V82XCEzaRGhNptX-20" value="&lt;div style=&quot;font-size: 10px;&quot;&gt;&lt;font style=&quot;font-size: 10px;&quot;&gt;&lt;i&gt;(Receive&lt;/i&gt;&lt;/font&gt;&lt;/div&gt;&lt;div style=&quot;font-size: 10px;&quot;&gt;&lt;font style=&quot;font-size: 10px;&quot;&gt;&lt;i&gt;CONFIRM_&lt;/i&gt;&lt;/font&gt;&lt;/div&gt;&lt;div style=&quot;font-size: 10px;&quot;&gt;&lt;font style=&quot;font-size: 10px;&quot;&gt;&lt;i&gt;SUCCESS)&lt;br&gt;&lt;/i&gt;&lt;/font&gt;&lt;/div&gt;" style="edgeLabel;html=1;align=center;verticalAlign=middle;resizable=0;points=[];" vertex="1" connectable="0" parent="DGbr0V82XCEzaRGhNptX-19">
          <mxGeometry x="-0.1601" y="1" relative="1" as="geometry">
            <mxPoint x="2" as="offset" />
          </mxGeometry>
        </mxCell>
        <mxCell id="DGbr0V82XCEzaRGhNptX-21" style="edgeStyle=orthogonalEdgeStyle;rounded=0;orthogonalLoop=1;jettySize=auto;html=1;exitX=0;exitY=0.5;exitDx=0;exitDy=0;entryX=0;entryY=0.25;entryDx=0;entryDy=0;" edge="1" parent="1" source="DGbr0V82XCEzaRGhNptX-27" target="DGbr0V82XCEzaRGhNptX-18">
          <mxGeometry relative="1" as="geometry">
            <Array as="points">
              <mxPoint x="4020" y="2910" />
              <mxPoint x="4020" y="2815" />
            </Array>
          </mxGeometry>
        </mxCell>
        <mxCell id="DGbr0V82XCEzaRGhNptX-22" value="&lt;div style=&quot;font-size: 10px;&quot;&gt;&lt;font style=&quot;font-size: 10px;&quot;&gt;&lt;i&gt;(Timeout, &lt;br&gt;&lt;/i&gt;&lt;/font&gt;&lt;/div&gt;&lt;div style=&quot;font-size: 10px;&quot;&gt;&lt;font style=&quot;font-size: 10px;&quot;&gt;&lt;i&gt;or receive&lt;/i&gt;&lt;/font&gt;&lt;/div&gt;&lt;div style=&quot;font-size: 10px;&quot;&gt;&lt;font style=&quot;font-size: 10px;&quot;&gt;&lt;i&gt;CONFIRM_&lt;/i&gt;&lt;/font&gt;&lt;/div&gt;&lt;div style=&quot;font-size: 10px;&quot;&gt;&lt;font style=&quot;font-size: 10px;&quot;&gt;&lt;i&gt;FAIL w/ 1+ &lt;br&gt;&lt;/i&gt;&lt;/font&gt;&lt;/div&gt;&lt;div style=&quot;font-size: 10px;&quot;&gt;&lt;font style=&quot;font-size: 10px;&quot;&gt;&lt;i&gt;tasks left&lt;/i&gt;&lt;/font&gt;&lt;/div&gt;&lt;div style=&quot;font-size: 10px;&quot;&gt;&lt;font style=&quot;font-size: 10px;&quot;&gt;&lt;i&gt;to confirm) &lt;br&gt;&lt;/i&gt;&lt;/font&gt;&lt;/div&gt;" style="edgeLabel;html=1;align=center;verticalAlign=middle;resizable=0;points=[];" vertex="1" connectable="0" parent="DGbr0V82XCEzaRGhNptX-21">
          <mxGeometry x="-0.0273" y="2" relative="1" as="geometry">
            <mxPoint x="1" y="-5" as="offset" />
          </mxGeometry>
        </mxCell>
        <mxCell id="DGbr0V82XCEzaRGhNptX-23" style="edgeStyle=orthogonalEdgeStyle;rounded=0;orthogonalLoop=1;jettySize=auto;html=1;exitX=0.25;exitY=1;exitDx=0;exitDy=0;entryX=0;entryY=0.75;entryDx=0;entryDy=0;" edge="1" parent="1" source="DGbr0V82XCEzaRGhNptX-27" target="DGbr0V82XCEzaRGhNptX-16">
          <mxGeometry relative="1" as="geometry">
            <Array as="points">
              <mxPoint x="4085" y="2970" />
              <mxPoint x="3980" y="2970" />
              <mxPoint x="3980" y="2745" />
            </Array>
          </mxGeometry>
        </mxCell>
        <mxCell id="DGbr0V82XCEzaRGhNptX-24" value="&lt;div style=&quot;font-size: 10px;&quot;&gt;&lt;font style=&quot;font-size: 10px;&quot;&gt;&lt;i&gt;(Timeout, or receive &lt;br&gt;&lt;/i&gt;&lt;/font&gt;&lt;/div&gt;&lt;div style=&quot;font-size: 10px;&quot;&gt;&lt;font style=&quot;font-size: 10px;&quot;&gt;&lt;i&gt;CONFIRM_FAIL with 0 tasks&lt;/i&gt;&lt;/font&gt;&lt;/div&gt;&lt;div style=&quot;font-size: 10px;&quot;&gt;&lt;font style=&quot;font-size: 10px;&quot;&gt;&lt;i&gt;left to confirm and&lt;/i&gt;&lt;/font&gt;&lt;/div&gt;&lt;div style=&quot;font-size: 10px;&quot;&gt;&lt;font style=&quot;font-size: 10px;&quot;&gt;&lt;i&gt;0 tasks confirmed)&lt;br&gt;&lt;/i&gt;&lt;/font&gt;&lt;/div&gt;" style="edgeLabel;html=1;align=center;verticalAlign=middle;resizable=0;points=[];" vertex="1" connectable="0" parent="DGbr0V82XCEzaRGhNptX-23">
          <mxGeometry x="-0.585" y="1" relative="1" as="geometry">
            <mxPoint x="32" y="1" as="offset" />
          </mxGeometry>
        </mxCell>
        <mxCell id="DGbr0V82XCEzaRGhNptX-25" style="edgeStyle=orthogonalEdgeStyle;rounded=0;orthogonalLoop=1;jettySize=auto;html=1;exitX=0.75;exitY=1;exitDx=0;exitDy=0;entryX=0;entryY=0.5;entryDx=0;entryDy=0;" edge="1" parent="1" source="DGbr0V82XCEzaRGhNptX-27" target="DGbr0V82XCEzaRGhNptX-32">
          <mxGeometry relative="1" as="geometry">
            <Array as="points">
              <mxPoint x="4155" y="2970" />
              <mxPoint x="4340" y="2970" />
              <mxPoint x="4340" y="2390" />
            </Array>
          </mxGeometry>
        </mxCell>
        <mxCell id="DGbr0V82XCEzaRGhNptX-26" value="&lt;div style=&quot;font-size: 10px;&quot;&gt;&lt;font style=&quot;font-size: 10px;&quot;&gt;&lt;i&gt;(Timeout, or receive&lt;/i&gt;&lt;/font&gt;&lt;/div&gt;&lt;div style=&quot;font-size: 10px;&quot;&gt;&lt;font style=&quot;font-size: 10px;&quot;&gt;&lt;i&gt;CONFIRM_FAIL with 0 tasks &lt;br&gt;&lt;/i&gt;&lt;/font&gt;&lt;/div&gt;&lt;div style=&quot;font-size: 10px;&quot;&gt;&lt;font style=&quot;font-size: 10px;&quot;&gt;&lt;i&gt;left to confirm and &lt;br&gt;&lt;/i&gt;&lt;/font&gt;&lt;/div&gt;&lt;div style=&quot;font-size: 10px;&quot;&gt;&lt;font style=&quot;font-size: 10px;&quot;&gt;&lt;i&gt;1+ tasks confirmed)&lt;br&gt;&lt;/i&gt;&lt;/font&gt;&lt;/div&gt;" style="edgeLabel;html=1;align=center;verticalAlign=middle;resizable=0;points=[];" vertex="1" connectable="0" parent="DGbr0V82XCEzaRGhNptX-25">
          <mxGeometry x="-0.7605" y="2" relative="1" as="geometry">
            <mxPoint x="-33" y="4" as="offset" />
          </mxGeometry>
        </mxCell>
        <mxCell id="DGbr0V82XCEzaRGhNptX-27" value="&lt;div&gt;&lt;b&gt;RECV_CONFIRM_TASK&lt;/b&gt;:&lt;/div&gt;&lt;div&gt;Await response for confirm request from TSC&lt;br&gt;&lt;/div&gt;" style="rounded=0;whiteSpace=wrap;html=1;" vertex="1" parent="1">
          <mxGeometry x="4050.1000000000004" y="2880" width="140" height="60" as="geometry" />
        </mxCell>
        <mxCell id="DGbr0V82XCEzaRGhNptX-28" value="" style="edgeStyle=orthogonalEdgeStyle;rounded=0;orthogonalLoop=1;jettySize=auto;html=1;exitX=1;exitY=0.75;exitDx=0;exitDy=0;entryX=0.75;entryY=0;entryDx=0;entryDy=0;" edge="1" parent="1" source="DGbr0V82XCEzaRGhNptX-32" target="DGbr0V82XCEzaRGhNptX-34">
          <mxGeometry relative="1" as="geometry" />
        </mxCell>
        <mxCell id="DGbr0V82XCEzaRGhNptX-29" value="&lt;div style=&quot;font-size: 10px;&quot;&gt;&lt;font style=&quot;font-size: 10px;&quot;&gt;&lt;i&gt;(Receive&lt;/i&gt;&lt;/font&gt;&lt;/div&gt;&lt;div style=&quot;font-size: 10px;&quot;&gt;&lt;font style=&quot;font-size: 10px;&quot;&gt;&lt;i&gt;SEND_KEY&lt;/i&gt;&lt;/font&gt;&lt;/div&gt;&lt;div style=&quot;font-size: 10px;&quot;&gt;&lt;font style=&quot;font-size: 10px;&quot;&gt;&lt;i&gt;with share)&lt;br&gt;&lt;/i&gt;&lt;/font&gt;&lt;/div&gt;" style="edgeLabel;html=1;align=center;verticalAlign=middle;resizable=0;points=[];" vertex="1" connectable="0" parent="DGbr0V82XCEzaRGhNptX-28">
          <mxGeometry x="-0.3633" y="1" relative="1" as="geometry">
            <mxPoint x="3" y="3" as="offset" />
          </mxGeometry>
        </mxCell>
        <mxCell id="DGbr0V82XCEzaRGhNptX-30" style="edgeStyle=orthogonalEdgeStyle;rounded=0;orthogonalLoop=1;jettySize=auto;html=1;exitX=1;exitY=0.25;exitDx=0;exitDy=0;entryX=0;entryY=0.25;entryDx=0;entryDy=0;" edge="1" parent="1" source="DGbr0V82XCEzaRGhNptX-32" target="DGbr0V82XCEzaRGhNptX-128">
          <mxGeometry relative="1" as="geometry" />
        </mxCell>
        <mxCell id="DGbr0V82XCEzaRGhNptX-31" value="&lt;div style=&quot;font-size: 10px;&quot;&gt;&lt;font style=&quot;font-size: 10px;&quot;&gt;&lt;i&gt;(Timeout, or Sd&lt;/i&gt;&lt;/font&gt;&lt;/div&gt;&lt;div style=&quot;font-size: 10px;&quot;&gt;&lt;font style=&quot;font-size: 10px;&quot;&gt;&lt;i&gt;passed w/ 0 &lt;br&gt;&lt;/i&gt;&lt;/font&gt;&lt;/div&gt;&lt;div style=&quot;font-size: 10px;&quot;&gt;&lt;font style=&quot;font-size: 10px;&quot;&gt;&lt;i&gt;tasks remaining)&lt;br&gt;&lt;/i&gt;&lt;/font&gt;&lt;/div&gt;" style="edgeLabel;html=1;align=center;verticalAlign=middle;resizable=0;points=[];" vertex="1" connectable="0" parent="DGbr0V82XCEzaRGhNptX-30">
          <mxGeometry x="-0.4833" y="1" relative="1" as="geometry">
            <mxPoint x="21" y="-6" as="offset" />
          </mxGeometry>
        </mxCell>
        <mxCell id="DGbr0V82XCEzaRGhNptX-32" value="&lt;div&gt;&lt;b&gt;RECV_SEND_KEY&lt;/b&gt;:&lt;/div&gt;&lt;div&gt;For next task, await keyshare from Requester&lt;br&gt;&lt;/div&gt;" style="rounded=0;whiteSpace=wrap;html=1;" vertex="1" parent="1">
          <mxGeometry x="4430" y="2360" width="140" height="60" as="geometry" />
        </mxCell>
        <mxCell id="DGbr0V82XCEzaRGhNptX-33" style="edgeStyle=orthogonalEdgeStyle;rounded=0;orthogonalLoop=1;jettySize=auto;html=1;exitX=0;exitY=0.5;exitDx=0;exitDy=0;entryX=1;entryY=0.5;entryDx=0;entryDy=0;" edge="1" parent="1" source="DGbr0V82XCEzaRGhNptX-34" target="DGbr0V82XCEzaRGhNptX-36">
          <mxGeometry relative="1" as="geometry" />
        </mxCell>
        <mxCell id="DGbr0V82XCEzaRGhNptX-34" value="Send ACK for keyshare to Requester" style="rounded=0;whiteSpace=wrap;html=1;" vertex="1" parent="1">
          <mxGeometry x="4590" y="2440" width="80" height="60" as="geometry" />
        </mxCell>
        <mxCell id="DGbr0V82XCEzaRGhNptX-35" style="edgeStyle=orthogonalEdgeStyle;rounded=0;orthogonalLoop=1;jettySize=auto;html=1;exitX=0.5;exitY=1;exitDx=0;exitDy=0;entryX=0.5;entryY=0;entryDx=0;entryDy=0;" edge="1" parent="1" source="DGbr0V82XCEzaRGhNptX-36" target="DGbr0V82XCEzaRGhNptX-42">
          <mxGeometry relative="1" as="geometry" />
        </mxCell>
        <mxCell id="DGbr0V82XCEzaRGhNptX-36" value="&lt;div&gt;&lt;b&gt;COMPUTE&lt;/b&gt;:&lt;/div&gt;&lt;div&gt;Generate local sensory data&lt;br&gt;&lt;/div&gt;" style="rounded=0;whiteSpace=wrap;html=1;strokeWidth=2;" vertex="1" parent="1">
          <mxGeometry x="4430" y="2440" width="140" height="60" as="geometry" />
        </mxCell>
        <mxCell id="DGbr0V82XCEzaRGhNptX-37" value="" style="edgeStyle=orthogonalEdgeStyle;rounded=0;orthogonalLoop=1;jettySize=auto;html=1;" edge="1" parent="1" source="DGbr0V82XCEzaRGhNptX-42" target="DGbr0V82XCEzaRGhNptX-47">
          <mxGeometry relative="1" as="geometry" />
        </mxCell>
        <mxCell id="DGbr0V82XCEzaRGhNptX-38" style="edgeStyle=orthogonalEdgeStyle;rounded=0;orthogonalLoop=1;jettySize=auto;html=1;exitX=0;exitY=0.5;exitDx=0;exitDy=0;entryX=0;entryY=0.75;entryDx=0;entryDy=0;" edge="1" parent="1" source="DGbr0V82XCEzaRGhNptX-42" target="DGbr0V82XCEzaRGhNptX-32">
          <mxGeometry relative="1" as="geometry">
            <Array as="points">
              <mxPoint x="4360" y="2550" />
              <mxPoint x="4360" y="2405" />
            </Array>
          </mxGeometry>
        </mxCell>
        <mxCell id="DGbr0V82XCEzaRGhNptX-39" value="&lt;div style=&quot;font-size: 10px;&quot;&gt;&lt;font style=&quot;font-size: 10px;&quot;&gt;&lt;i&gt;(Sd passed &lt;br&gt;&lt;/i&gt;&lt;/font&gt;&lt;/div&gt;&lt;div style=&quot;font-size: 10px;&quot;&gt;&lt;font style=&quot;font-size: 10px;&quot;&gt;&lt;i&gt;w/ 1+ tasks&lt;/i&gt;&lt;/font&gt;&lt;/div&gt;&lt;div style=&quot;font-size: 10px;&quot;&gt;&lt;font style=&quot;font-size: 10px;&quot;&gt;&lt;i&gt;remaining)&lt;br&gt;&lt;/i&gt;&lt;/font&gt;&lt;/div&gt;" style="edgeLabel;html=1;align=center;verticalAlign=middle;resizable=0;points=[];" vertex="1" connectable="0" parent="DGbr0V82XCEzaRGhNptX-38">
          <mxGeometry x="-0.771" relative="1" as="geometry">
            <mxPoint x="-3" as="offset" />
          </mxGeometry>
        </mxCell>
        <mxCell id="DGbr0V82XCEzaRGhNptX-40" style="edgeStyle=orthogonalEdgeStyle;rounded=0;orthogonalLoop=1;jettySize=auto;html=1;exitX=1;exitY=0.5;exitDx=0;exitDy=0;entryX=0.5;entryY=1;entryDx=0;entryDy=0;" edge="1" parent="1" source="DGbr0V82XCEzaRGhNptX-42" target="DGbr0V82XCEzaRGhNptX-128">
          <mxGeometry relative="1" as="geometry">
            <mxPoint x="4670" y="2550" as="targetPoint" />
          </mxGeometry>
        </mxCell>
        <mxCell id="DGbr0V82XCEzaRGhNptX-41" value="&lt;div style=&quot;font-size: 10px;&quot;&gt;&lt;font style=&quot;font-size: 10px;&quot;&gt;&lt;i&gt;(Sd passed w/ 0 &lt;br&gt;&lt;/i&gt;&lt;/font&gt;&lt;/div&gt;&lt;div style=&quot;font-size: 10px;&quot;&gt;&lt;font style=&quot;font-size: 10px;&quot;&gt;&lt;i&gt;tasks remaining)&lt;br&gt;&lt;/i&gt;&lt;/font&gt;&lt;/div&gt;" style="edgeLabel;html=1;align=center;verticalAlign=middle;resizable=0;points=[];" vertex="1" connectable="0" parent="DGbr0V82XCEzaRGhNptX-40">
          <mxGeometry x="-0.0938" y="1" relative="1" as="geometry">
            <mxPoint x="-62" y="1" as="offset" />
          </mxGeometry>
        </mxCell>
        <mxCell id="DGbr0V82XCEzaRGhNptX-42" value="&lt;div&gt;&lt;b&gt;SEND_SUBMIT_DATA&lt;/b&gt;:&lt;/div&gt;&lt;div&gt;Send message with encrypted sensory data to Database&lt;br&gt;&lt;/div&gt;" style="rounded=0;whiteSpace=wrap;html=1;" vertex="1" parent="1">
          <mxGeometry x="4430" y="2520" width="140" height="60" as="geometry" />
        </mxCell>
        <mxCell id="DGbr0V82XCEzaRGhNptX-43" value="" style="edgeStyle=orthogonalEdgeStyle;rounded=0;orthogonalLoop=1;jettySize=auto;html=1;" edge="1" parent="1" source="DGbr0V82XCEzaRGhNptX-47" target="DGbr0V82XCEzaRGhNptX-53">
          <mxGeometry relative="1" as="geometry" />
        </mxCell>
        <mxCell id="DGbr0V82XCEzaRGhNptX-44" value="&lt;div style=&quot;font-size: 10px;&quot;&gt;&lt;font style=&quot;font-size: 10px;&quot;&gt;&lt;i&gt;(Receive HASH&lt;/i&gt;&lt;/font&gt;&lt;/div&gt;&lt;div style=&quot;font-size: 10px;&quot;&gt;&lt;font style=&quot;font-size: 10px;&quot;&gt;&lt;i&gt;with data hash)&lt;/i&gt;&lt;/font&gt;&lt;/div&gt;" style="edgeLabel;html=1;align=center;verticalAlign=middle;resizable=0;points=[];" vertex="1" connectable="0" parent="DGbr0V82XCEzaRGhNptX-43">
          <mxGeometry x="-0.1891" relative="1" as="geometry">
            <mxPoint as="offset" />
          </mxGeometry>
        </mxCell>
        <mxCell id="DGbr0V82XCEzaRGhNptX-45" style="edgeStyle=orthogonalEdgeStyle;rounded=0;orthogonalLoop=1;jettySize=auto;html=1;exitX=0;exitY=0.5;exitDx=0;exitDy=0;entryX=0;entryY=0.75;entryDx=0;entryDy=0;" edge="1" parent="1" source="DGbr0V82XCEzaRGhNptX-47" target="DGbr0V82XCEzaRGhNptX-32">
          <mxGeometry relative="1" as="geometry">
            <Array as="points">
              <mxPoint x="4360" y="2630" />
              <mxPoint x="4360" y="2405" />
            </Array>
          </mxGeometry>
        </mxCell>
        <mxCell id="DGbr0V82XCEzaRGhNptX-46" value="&lt;div style=&quot;font-size: 10px;&quot;&gt;&lt;font style=&quot;font-size: 10px;&quot;&gt;&lt;i&gt;(Timeout, or &lt;br&gt;&lt;/i&gt;&lt;/font&gt;&lt;/div&gt;&lt;div style=&quot;font-size: 10px;&quot;&gt;&lt;font style=&quot;font-size: 10px;&quot;&gt;&lt;i&gt;Sd passed&lt;/i&gt;&lt;/font&gt;&lt;/div&gt;&lt;div style=&quot;font-size: 10px;&quot;&gt;&lt;font style=&quot;font-size: 10px;&quot;&gt;&lt;i&gt;&amp;nbsp;w/ 1+ tasks &lt;br&gt;&lt;/i&gt;&lt;/font&gt;&lt;/div&gt;&lt;div style=&quot;font-size: 10px;&quot;&gt;&lt;font style=&quot;font-size: 10px;&quot;&gt;&lt;i&gt;remaining)&lt;br&gt;&lt;/i&gt;&lt;/font&gt;&lt;/div&gt;" style="edgeLabel;html=1;align=center;verticalAlign=middle;resizable=0;points=[];" vertex="1" connectable="0" parent="DGbr0V82XCEzaRGhNptX-45">
          <mxGeometry x="-0.7768" relative="1" as="geometry">
            <mxPoint x="4" as="offset" />
          </mxGeometry>
        </mxCell>
        <mxCell id="DGbr0V82XCEzaRGhNptX-47" value="&lt;div&gt;&lt;b&gt;RECV_SUBMIT_DATA&lt;/b&gt;:&lt;/div&gt;&lt;div&gt;Await hash of sensory data from Database&lt;br&gt;&lt;/div&gt;" style="rounded=0;whiteSpace=wrap;html=1;" vertex="1" parent="1">
          <mxGeometry x="4430" y="2600" width="140" height="60" as="geometry" />
        </mxCell>
        <mxCell id="DGbr0V82XCEzaRGhNptX-48" value="" style="edgeStyle=orthogonalEdgeStyle;rounded=0;orthogonalLoop=1;jettySize=auto;html=1;" edge="1" parent="1" source="DGbr0V82XCEzaRGhNptX-53" target="DGbr0V82XCEzaRGhNptX-60">
          <mxGeometry relative="1" as="geometry" />
        </mxCell>
        <mxCell id="DGbr0V82XCEzaRGhNptX-49" style="edgeStyle=orthogonalEdgeStyle;rounded=0;orthogonalLoop=1;jettySize=auto;html=1;exitX=0;exitY=0.5;exitDx=0;exitDy=0;entryX=0;entryY=0.75;entryDx=0;entryDy=0;" edge="1" parent="1" source="DGbr0V82XCEzaRGhNptX-53" target="DGbr0V82XCEzaRGhNptX-32">
          <mxGeometry relative="1" as="geometry">
            <Array as="points">
              <mxPoint x="4360" y="2730" />
              <mxPoint x="4360" y="2405" />
            </Array>
          </mxGeometry>
        </mxCell>
        <mxCell id="DGbr0V82XCEzaRGhNptX-50" value="&lt;div style=&quot;font-size: 10px;&quot;&gt;&lt;font style=&quot;font-size: 10px;&quot;&gt;&lt;i&gt;(Sd passed &lt;br&gt;&lt;/i&gt;&lt;/font&gt;&lt;/div&gt;&lt;div style=&quot;font-size: 10px;&quot;&gt;&lt;font style=&quot;font-size: 10px;&quot;&gt;&lt;i&gt;w/ 1+ tasks&lt;/i&gt;&lt;/font&gt;&lt;/div&gt;&lt;div style=&quot;font-size: 10px;&quot;&gt;&lt;font style=&quot;font-size: 10px;&quot;&gt;&lt;i&gt;remaining)&lt;br&gt;&lt;/i&gt;&lt;/font&gt;&lt;/div&gt;" style="edgeLabel;html=1;align=center;verticalAlign=middle;resizable=0;points=[];" vertex="1" connectable="0" parent="DGbr0V82XCEzaRGhNptX-49">
          <mxGeometry x="-0.8494" y="-2" relative="1" as="geometry">
            <mxPoint x="-2" as="offset" />
          </mxGeometry>
        </mxCell>
        <mxCell id="DGbr0V82XCEzaRGhNptX-51" style="edgeStyle=orthogonalEdgeStyle;rounded=0;orthogonalLoop=1;jettySize=auto;html=1;exitX=1;exitY=0.5;exitDx=0;exitDy=0;entryX=0.5;entryY=1;entryDx=0;entryDy=0;" edge="1" parent="1" source="DGbr0V82XCEzaRGhNptX-53" target="DGbr0V82XCEzaRGhNptX-128">
          <mxGeometry relative="1" as="geometry" />
        </mxCell>
        <mxCell id="DGbr0V82XCEzaRGhNptX-52" value="&lt;div style=&quot;font-size: 10px;&quot;&gt;&lt;font style=&quot;font-size: 10px;&quot;&gt;&lt;i&gt;(Sd passed w/ 0 &lt;br&gt;&lt;/i&gt;&lt;/font&gt;&lt;/div&gt;&lt;div style=&quot;font-size: 10px;&quot;&gt;&lt;font style=&quot;font-size: 10px;&quot;&gt;&lt;i&gt;tasks remaining)&lt;br&gt;&lt;/i&gt;&lt;/font&gt;&lt;/div&gt;" style="edgeLabel;html=1;align=center;verticalAlign=middle;resizable=0;points=[];" vertex="1" connectable="0" parent="DGbr0V82XCEzaRGhNptX-51">
          <mxGeometry x="-0.7602" y="-1" relative="1" as="geometry">
            <mxPoint x="2" y="-1" as="offset" />
          </mxGeometry>
        </mxCell>
        <mxCell id="DGbr0V82XCEzaRGhNptX-53" value="&lt;div&gt;&lt;b&gt;SEND_SUBMIT_HASH&lt;/b&gt;:&lt;/div&gt;&lt;div&gt;Send message with data hash to TSC&lt;br&gt;&lt;/div&gt;" style="rounded=0;whiteSpace=wrap;html=1;" vertex="1" parent="1">
          <mxGeometry x="4430" y="2700" width="140" height="60" as="geometry" />
        </mxCell>
        <mxCell id="DGbr0V82XCEzaRGhNptX-54" style="edgeStyle=orthogonalEdgeStyle;rounded=0;orthogonalLoop=1;jettySize=auto;html=1;exitX=0;exitY=0.5;exitDx=0;exitDy=0;entryX=0;entryY=0.75;entryDx=0;entryDy=0;" edge="1" parent="1" source="DGbr0V82XCEzaRGhNptX-60" target="DGbr0V82XCEzaRGhNptX-32">
          <mxGeometry relative="1" as="geometry">
            <Array as="points">
              <mxPoint x="4360" y="2810" />
              <mxPoint x="4360" y="2405" />
            </Array>
          </mxGeometry>
        </mxCell>
        <mxCell id="DGbr0V82XCEzaRGhNptX-55" value="&lt;div style=&quot;font-size: 10px;&quot;&gt;&lt;font style=&quot;font-size: 10px;&quot;&gt;&lt;i&gt;(Timeout or &lt;br&gt;&lt;/i&gt;&lt;/font&gt;&lt;/div&gt;&lt;div style=&quot;font-size: 10px;&quot;&gt;&lt;font style=&quot;font-size: 10px;&quot;&gt;&lt;i&gt;Sd passed&lt;/i&gt;&lt;/font&gt;&lt;/div&gt;&lt;div style=&quot;font-size: 10px;&quot;&gt;&lt;font style=&quot;font-size: 10px;&quot;&gt;&lt;i&gt;&amp;nbsp;w/ 1+ tasks &lt;br&gt;&lt;/i&gt;&lt;/font&gt;&lt;/div&gt;&lt;div style=&quot;font-size: 10px;&quot;&gt;&lt;font style=&quot;font-size: 10px;&quot;&gt;&lt;i&gt;remaining)&lt;br&gt;&lt;/i&gt;&lt;/font&gt;&lt;/div&gt;" style="edgeLabel;html=1;align=center;verticalAlign=middle;resizable=0;points=[];" vertex="1" connectable="0" parent="DGbr0V82XCEzaRGhNptX-54">
          <mxGeometry x="-0.8857" y="-1" relative="1" as="geometry">
            <mxPoint x="-5" as="offset" />
          </mxGeometry>
        </mxCell>
        <mxCell id="DGbr0V82XCEzaRGhNptX-56" style="edgeStyle=orthogonalEdgeStyle;rounded=0;orthogonalLoop=1;jettySize=auto;html=1;exitX=1;exitY=0.5;exitDx=0;exitDy=0;entryX=0.5;entryY=1;entryDx=0;entryDy=0;" edge="1" parent="1" source="DGbr0V82XCEzaRGhNptX-60" target="DGbr0V82XCEzaRGhNptX-128">
          <mxGeometry relative="1" as="geometry" />
        </mxCell>
        <mxCell id="DGbr0V82XCEzaRGhNptX-57" value="&lt;div style=&quot;font-size: 10px;&quot;&gt;&lt;font style=&quot;font-size: 10px;&quot;&gt;&lt;i&gt;(Timeout or Sd&lt;/i&gt;&lt;/font&gt;&lt;/div&gt;&lt;div style=&quot;font-size: 10px;&quot;&gt;&lt;font style=&quot;font-size: 10px;&quot;&gt;&lt;i&gt;passed w/ 0 &lt;br&gt;&lt;/i&gt;&lt;/font&gt;&lt;/div&gt;&lt;div style=&quot;font-size: 10px;&quot;&gt;&lt;font style=&quot;font-size: 10px;&quot;&gt;&lt;i&gt;tasks remaining)&lt;br&gt;&lt;/i&gt;&lt;/font&gt;&lt;/div&gt;" style="edgeLabel;html=1;align=center;verticalAlign=middle;resizable=0;points=[];" vertex="1" connectable="0" parent="DGbr0V82XCEzaRGhNptX-56">
          <mxGeometry x="-0.7865" y="2" relative="1" as="geometry">
            <mxPoint x="-2" as="offset" />
          </mxGeometry>
        </mxCell>
        <mxCell id="DGbr0V82XCEzaRGhNptX-58" style="edgeStyle=orthogonalEdgeStyle;rounded=0;orthogonalLoop=1;jettySize=auto;html=1;exitX=0.5;exitY=1;exitDx=0;exitDy=0;entryX=0.5;entryY=0;entryDx=0;entryDy=0;" edge="1" parent="1" source="DGbr0V82XCEzaRGhNptX-60" target="DGbr0V82XCEzaRGhNptX-137">
          <mxGeometry relative="1" as="geometry" />
        </mxCell>
        <mxCell id="DGbr0V82XCEzaRGhNptX-59" value="&lt;font style=&quot;font-size: 10px;&quot;&gt;&lt;i&gt;(Receive ACK from TSC)&lt;br&gt;&lt;/i&gt;&lt;/font&gt;" style="edgeLabel;html=1;align=center;verticalAlign=middle;resizable=0;points=[];" vertex="1" connectable="0" parent="DGbr0V82XCEzaRGhNptX-58">
          <mxGeometry x="-0.2429" relative="1" as="geometry">
            <mxPoint as="offset" />
          </mxGeometry>
        </mxCell>
        <mxCell id="DGbr0V82XCEzaRGhNptX-60" value="&lt;div&gt;&lt;b&gt;RECV_SUBMIT_HASH&lt;/b&gt;:&lt;/div&gt;&lt;div&gt;Await ACK for data hash from TSC&lt;br&gt;&lt;/div&gt;" style="rounded=0;whiteSpace=wrap;html=1;" vertex="1" parent="1">
          <mxGeometry x="4430" y="2780" width="140" height="60" as="geometry" />
        </mxCell>
        <mxCell id="DGbr0V82XCEzaRGhNptX-61" value="" style="edgeStyle=orthogonalEdgeStyle;rounded=0;orthogonalLoop=1;jettySize=auto;html=1;entryX=0.5;entryY=0;entryDx=0;entryDy=0;" edge="1" parent="1" source="DGbr0V82XCEzaRGhNptX-66" target="DGbr0V82XCEzaRGhNptX-73">
          <mxGeometry relative="1" as="geometry" />
        </mxCell>
        <mxCell id="DGbr0V82XCEzaRGhNptX-62" style="edgeStyle=orthogonalEdgeStyle;rounded=0;orthogonalLoop=1;jettySize=auto;html=1;exitX=1;exitY=0.5;exitDx=0;exitDy=0;entryX=0;entryY=0.5;entryDx=0;entryDy=0;" edge="1" parent="1" source="DGbr0V82XCEzaRGhNptX-66" target="DGbr0V82XCEzaRGhNptX-142">
          <mxGeometry relative="1" as="geometry" />
        </mxCell>
        <mxCell id="DGbr0V82XCEzaRGhNptX-63" value="&lt;div style=&quot;font-size: 10px;&quot;&gt;&lt;font style=&quot;font-size: 10px;&quot;&gt;&lt;i&gt;(Pd passed &lt;br&gt;&lt;/i&gt;&lt;/font&gt;&lt;/div&gt;&lt;div style=&quot;font-size: 10px;&quot;&gt;&lt;font style=&quot;font-size: 10px;&quot;&gt;&lt;i&gt;w/ 1+ tasks &lt;br&gt;&lt;/i&gt;&lt;/font&gt;&lt;/div&gt;&lt;div style=&quot;font-size: 10px;&quot;&gt;&lt;font style=&quot;font-size: 10px;&quot;&gt;&lt;i&gt;remaining)&lt;/i&gt;&lt;/font&gt;&lt;/div&gt;" style="edgeLabel;html=1;align=center;verticalAlign=middle;resizable=0;points=[];" vertex="1" connectable="0" parent="DGbr0V82XCEzaRGhNptX-62">
          <mxGeometry x="-0.2575" y="1" relative="1" as="geometry">
            <mxPoint x="9" as="offset" />
          </mxGeometry>
        </mxCell>
        <mxCell id="DGbr0V82XCEzaRGhNptX-64" style="edgeStyle=orthogonalEdgeStyle;rounded=0;orthogonalLoop=1;jettySize=auto;html=1;exitX=0.75;exitY=0;exitDx=0;exitDy=0;entryX=0.5;entryY=0;entryDx=0;entryDy=0;" edge="1" parent="1" source="DGbr0V82XCEzaRGhNptX-66" target="DGbr0V82XCEzaRGhNptX-143">
          <mxGeometry relative="1" as="geometry" />
        </mxCell>
        <mxCell id="DGbr0V82XCEzaRGhNptX-65" value="&lt;div style=&quot;font-size: 10px;&quot;&gt;&lt;font style=&quot;font-size: 10px;&quot;&gt;&lt;i&gt;(Pd passed w/ &lt;br&gt;&lt;/i&gt;&lt;/font&gt;&lt;/div&gt;&lt;div style=&quot;font-size: 10px;&quot;&gt;&lt;font style=&quot;font-size: 10px;&quot;&gt;&lt;i&gt;0 tasks remaining)&lt;/i&gt;&lt;/font&gt;&lt;/div&gt;" style="edgeLabel;html=1;align=center;verticalAlign=middle;resizable=0;points=[];" vertex="1" connectable="0" parent="DGbr0V82XCEzaRGhNptX-64">
          <mxGeometry x="-0.3793" relative="1" as="geometry">
            <mxPoint x="8" y="1" as="offset" />
          </mxGeometry>
        </mxCell>
        <mxCell id="DGbr0V82XCEzaRGhNptX-66" value="&lt;div&gt;&lt;b&gt;SEND_QUERY_DATA&lt;/b&gt;:&lt;/div&gt;&lt;div&gt;Send request for submitted data to Database&lt;br&gt;&lt;/div&gt;" style="rounded=0;whiteSpace=wrap;html=1;" vertex="1" parent="1">
          <mxGeometry x="4770" y="2360" width="140" height="60" as="geometry" />
        </mxCell>
        <mxCell id="DGbr0V82XCEzaRGhNptX-67" value="" style="edgeStyle=orthogonalEdgeStyle;rounded=0;orthogonalLoop=1;jettySize=auto;html=1;entryX=0.25;entryY=0;entryDx=0;entryDy=0;exitX=0.25;exitY=1;exitDx=0;exitDy=0;" edge="1" parent="1" source="DGbr0V82XCEzaRGhNptX-73" target="DGbr0V82XCEzaRGhNptX-81">
          <mxGeometry relative="1" as="geometry" />
        </mxCell>
        <mxCell id="DGbr0V82XCEzaRGhNptX-68" value="&lt;div style=&quot;font-size: 10px;&quot;&gt;&lt;font style=&quot;font-size: 10px;&quot;&gt;&lt;i&gt;(Receive&lt;/i&gt;&lt;/font&gt;&lt;/div&gt;&lt;div style=&quot;font-size: 10px;&quot;&gt;&lt;font style=&quot;font-size: 10px;&quot;&gt;&lt;i&gt;DATA w/&lt;/i&gt;&lt;/font&gt;&lt;/div&gt;&lt;div style=&quot;font-size: 10px;&quot;&gt;&lt;font style=&quot;font-size: 10px;&quot;&gt;&lt;i&gt;submitted&lt;/i&gt;&lt;/font&gt;&lt;/div&gt;&lt;div style=&quot;font-size: 10px;&quot;&gt;&lt;font style=&quot;font-size: 10px;&quot;&gt;&lt;i&gt;data)&lt;br&gt;&lt;/i&gt;&lt;/font&gt;&lt;/div&gt;" style="edgeLabel;html=1;align=center;verticalAlign=middle;resizable=0;points=[];" vertex="1" connectable="0" parent="DGbr0V82XCEzaRGhNptX-67">
          <mxGeometry x="-0.4648" y="-2" relative="1" as="geometry">
            <mxPoint y="9" as="offset" />
          </mxGeometry>
        </mxCell>
        <mxCell id="DGbr0V82XCEzaRGhNptX-69" style="edgeStyle=orthogonalEdgeStyle;rounded=0;orthogonalLoop=1;jettySize=auto;html=1;exitX=1;exitY=0.25;exitDx=0;exitDy=0;entryX=0.5;entryY=1;entryDx=0;entryDy=0;" edge="1" parent="1" source="DGbr0V82XCEzaRGhNptX-73" target="DGbr0V82XCEzaRGhNptX-142">
          <mxGeometry relative="1" as="geometry" />
        </mxCell>
        <mxCell id="DGbr0V82XCEzaRGhNptX-70" value="&lt;div style=&quot;font-size: 10px;&quot;&gt;&lt;font style=&quot;font-size: 10px;&quot;&gt;&lt;i&gt;(Timeout or Pd passed &lt;br&gt;&lt;/i&gt;&lt;/font&gt;&lt;/div&gt;&lt;div style=&quot;font-size: 10px;&quot;&gt;&lt;font style=&quot;font-size: 10px;&quot;&gt;&lt;i&gt;w/ 1+ tasks remaining)&lt;/i&gt;&lt;/font&gt;&lt;/div&gt;" style="edgeLabel;html=1;align=center;verticalAlign=middle;resizable=0;points=[];" vertex="1" connectable="0" parent="DGbr0V82XCEzaRGhNptX-69">
          <mxGeometry x="-0.4898" y="-1" relative="1" as="geometry">
            <mxPoint x="19" y="-3" as="offset" />
          </mxGeometry>
        </mxCell>
        <mxCell id="DGbr0V82XCEzaRGhNptX-71" style="edgeStyle=orthogonalEdgeStyle;rounded=0;orthogonalLoop=1;jettySize=auto;html=1;exitX=1;exitY=0.75;exitDx=0;exitDy=0;entryX=0.5;entryY=1;entryDx=0;entryDy=0;" edge="1" parent="1" source="DGbr0V82XCEzaRGhNptX-73" target="DGbr0V82XCEzaRGhNptX-143">
          <mxGeometry relative="1" as="geometry" />
        </mxCell>
        <mxCell id="DGbr0V82XCEzaRGhNptX-72" value="&lt;div style=&quot;font-size: 10px;&quot;&gt;&lt;font style=&quot;font-size: 10px;&quot;&gt;&lt;i&gt;(Timeout or Pd passed &lt;br&gt;&lt;/i&gt;&lt;/font&gt;&lt;/div&gt;&lt;div style=&quot;font-size: 10px;&quot;&gt;&lt;font style=&quot;font-size: 10px;&quot;&gt;&lt;i&gt;w/ 0 tasks remaining)&lt;/i&gt;&lt;/font&gt;&lt;/div&gt;" style="edgeLabel;html=1;align=center;verticalAlign=middle;resizable=0;points=[];" vertex="1" connectable="0" parent="DGbr0V82XCEzaRGhNptX-71">
          <mxGeometry x="-0.4968" y="-2" relative="1" as="geometry">
            <mxPoint x="-9" y="-3" as="offset" />
          </mxGeometry>
        </mxCell>
        <mxCell id="DGbr0V82XCEzaRGhNptX-73" value="&lt;div&gt;&lt;b&gt;RECV_QUERY_DATA&lt;/b&gt;:&lt;/div&gt;&lt;div&gt;Await submitted data from Database&lt;br&gt;&lt;/div&gt;" style="rounded=0;whiteSpace=wrap;html=1;" vertex="1" parent="1">
          <mxGeometry x="4770" y="2440" width="140" height="60" as="geometry" />
        </mxCell>
        <mxCell id="DGbr0V82XCEzaRGhNptX-74" value="" style="edgeStyle=orthogonalEdgeStyle;rounded=0;orthogonalLoop=1;jettySize=auto;html=1;entryX=0;entryY=0.25;entryDx=0;entryDy=0;exitX=1;exitY=0.25;exitDx=0;exitDy=0;" edge="1" parent="1" source="DGbr0V82XCEzaRGhNptX-81" target="DGbr0V82XCEzaRGhNptX-96">
          <mxGeometry relative="1" as="geometry" />
        </mxCell>
        <mxCell id="DGbr0V82XCEzaRGhNptX-75" value="&lt;div style=&quot;font-size: 10px;&quot;&gt;&lt;font style=&quot;font-size: 10px;&quot;&gt;&lt;i&gt;(Receive&lt;/i&gt;&lt;/font&gt;&lt;/div&gt;&lt;div style=&quot;font-size: 10px;&quot;&gt;&lt;font style=&quot;font-size: 10px;&quot;&gt;&lt;i&gt;GET_DATA from&lt;/i&gt;&lt;/font&gt;&lt;/div&gt;&lt;div style=&quot;font-size: 10px;&quot;&gt;&lt;font style=&quot;font-size: 10px;&quot;&gt;&lt;i&gt;other Worker)&lt;br&gt;&lt;/i&gt;&lt;/font&gt;&lt;/div&gt;" style="edgeLabel;html=1;align=center;verticalAlign=middle;resizable=0;points=[];" vertex="1" connectable="0" parent="DGbr0V82XCEzaRGhNptX-74">
          <mxGeometry x="-0.2132" relative="1" as="geometry">
            <mxPoint x="8" y="-11" as="offset" />
          </mxGeometry>
        </mxCell>
        <mxCell id="DGbr0V82XCEzaRGhNptX-76" style="edgeStyle=orthogonalEdgeStyle;rounded=0;orthogonalLoop=1;jettySize=auto;html=1;exitX=0.25;exitY=1;exitDx=0;exitDy=0;entryX=0.25;entryY=0;entryDx=0;entryDy=0;" edge="1" parent="1" source="DGbr0V82XCEzaRGhNptX-81" target="DGbr0V82XCEzaRGhNptX-92">
          <mxGeometry relative="1" as="geometry" />
        </mxCell>
        <mxCell id="DGbr0V82XCEzaRGhNptX-77" style="edgeStyle=orthogonalEdgeStyle;rounded=0;orthogonalLoop=1;jettySize=auto;html=1;exitX=0.5;exitY=0;exitDx=0;exitDy=0;entryX=0;entryY=0.5;entryDx=0;entryDy=0;" edge="1" parent="1" source="DGbr0V82XCEzaRGhNptX-81" target="DGbr0V82XCEzaRGhNptX-144">
          <mxGeometry relative="1" as="geometry" />
        </mxCell>
        <mxCell id="DGbr0V82XCEzaRGhNptX-78" value="&lt;div style=&quot;font-size: 10px;&quot;&gt;&lt;font style=&quot;font-size: 10px;&quot;&gt;&lt;i&gt;(Pd passed w/ 1+ tasks remaining)&lt;/i&gt;&lt;/font&gt;&lt;/div&gt;" style="edgeLabel;html=1;align=center;verticalAlign=middle;resizable=0;points=[];" vertex="1" connectable="0" parent="DGbr0V82XCEzaRGhNptX-77">
          <mxGeometry x="-0.4693" y="2" relative="1" as="geometry">
            <mxPoint x="114" y="2" as="offset" />
          </mxGeometry>
        </mxCell>
        <mxCell id="DGbr0V82XCEzaRGhNptX-79" style="edgeStyle=orthogonalEdgeStyle;rounded=0;orthogonalLoop=1;jettySize=auto;html=1;exitX=0.75;exitY=0;exitDx=0;exitDy=0;entryX=1;entryY=0.5;entryDx=0;entryDy=0;" edge="1" parent="1" source="DGbr0V82XCEzaRGhNptX-81" target="DGbr0V82XCEzaRGhNptX-143">
          <mxGeometry relative="1" as="geometry">
            <mxPoint x="5180" y="2555" as="targetPoint" />
            <Array as="points">
              <mxPoint x="4875" y="2540" />
              <mxPoint x="5180" y="2540" />
              <mxPoint x="5180" y="2390" />
            </Array>
          </mxGeometry>
        </mxCell>
        <mxCell id="DGbr0V82XCEzaRGhNptX-80" value="&lt;div style=&quot;font-size: 10px;&quot;&gt;&lt;font style=&quot;font-size: 10px;&quot;&gt;&lt;i&gt;(Pd passed w/ 0 tasks remaining)&lt;/i&gt;&lt;/font&gt;&lt;/div&gt;" style="edgeLabel;html=1;align=center;verticalAlign=middle;resizable=0;points=[];" vertex="1" connectable="0" parent="DGbr0V82XCEzaRGhNptX-79">
          <mxGeometry x="-0.1282" y="-1" relative="1" as="geometry">
            <mxPoint x="-94" y="-2" as="offset" />
          </mxGeometry>
        </mxCell>
        <mxCell id="DGbr0V82XCEzaRGhNptX-81" value="&lt;div&gt;&lt;b&gt;REQUEST_DATA&lt;/b&gt;:&lt;/div&gt;&lt;div&gt;For next worker, send request for decrypted data from Worker&lt;br&gt;&lt;/div&gt;" style="rounded=0;whiteSpace=wrap;html=1;" vertex="1" parent="1">
          <mxGeometry x="4770" y="2580" width="140" height="60" as="geometry" />
        </mxCell>
        <mxCell id="DGbr0V82XCEzaRGhNptX-82" style="edgeStyle=orthogonalEdgeStyle;rounded=0;orthogonalLoop=1;jettySize=auto;html=1;exitX=0.5;exitY=0;exitDx=0;exitDy=0;entryX=0.25;entryY=1;entryDx=0;entryDy=0;" edge="1" parent="1" source="DGbr0V82XCEzaRGhNptX-92" target="DGbr0V82XCEzaRGhNptX-96">
          <mxGeometry relative="1" as="geometry" />
        </mxCell>
        <mxCell id="DGbr0V82XCEzaRGhNptX-83" value="&lt;div style=&quot;font-size: 10px;&quot;&gt;&lt;font style=&quot;font-size: 10px;&quot;&gt;&lt;i&gt;(Receive GET_DATA&lt;/i&gt;&lt;/font&gt;&lt;/div&gt;&lt;div style=&quot;font-size: 10px;&quot;&gt;&lt;font style=&quot;font-size: 10px;&quot;&gt;&lt;i&gt;request from other Worker)&lt;br&gt;&lt;/i&gt;&lt;/font&gt;&lt;/div&gt;" style="edgeLabel;html=1;align=center;verticalAlign=middle;resizable=0;points=[];" vertex="1" connectable="0" parent="DGbr0V82XCEzaRGhNptX-82">
          <mxGeometry x="-0.0725" y="1" relative="1" as="geometry">
            <mxPoint x="7" y="2" as="offset" />
          </mxGeometry>
        </mxCell>
        <mxCell id="DGbr0V82XCEzaRGhNptX-84" style="edgeStyle=orthogonalEdgeStyle;rounded=0;orthogonalLoop=1;jettySize=auto;html=1;exitX=1;exitY=0.5;exitDx=0;exitDy=0;entryX=0;entryY=0.5;entryDx=0;entryDy=0;" edge="1" parent="1" source="DGbr0V82XCEzaRGhNptX-92" target="DGbr0V82XCEzaRGhNptX-126">
          <mxGeometry relative="1" as="geometry">
            <mxPoint x="5090" y="2725" as="targetPoint" />
          </mxGeometry>
        </mxCell>
        <mxCell id="DGbr0V82XCEzaRGhNptX-85" value="&lt;font style=&quot;font-size: 10px;&quot;&gt;&lt;i&gt;(Receive DATA from Worker)&lt;br&gt;&lt;/i&gt;&lt;/font&gt;" style="edgeLabel;html=1;align=center;verticalAlign=middle;resizable=0;points=[];" vertex="1" connectable="0" parent="DGbr0V82XCEzaRGhNptX-84">
          <mxGeometry x="0.1034" relative="1" as="geometry">
            <mxPoint x="-7" y="-1" as="offset" />
          </mxGeometry>
        </mxCell>
        <mxCell id="DGbr0V82XCEzaRGhNptX-86" style="edgeStyle=orthogonalEdgeStyle;rounded=0;orthogonalLoop=1;jettySize=auto;html=1;exitX=0.25;exitY=1;exitDx=0;exitDy=0;entryX=0.25;entryY=0;entryDx=0;entryDy=0;" edge="1" parent="1" source="DGbr0V82XCEzaRGhNptX-92" target="DGbr0V82XCEzaRGhNptX-102">
          <mxGeometry relative="1" as="geometry" />
        </mxCell>
        <mxCell id="DGbr0V82XCEzaRGhNptX-87" value="&lt;div style=&quot;font-size: 10px;&quot;&gt;&lt;i&gt;&lt;font style=&quot;font-size: 10px;&quot;&gt;(0 Workers left &lt;br&gt;&lt;/font&gt;&lt;/i&gt;&lt;/div&gt;&lt;div style=&quot;font-size: 10px;&quot;&gt;&lt;i&gt;&lt;font style=&quot;font-size: 10px;&quot;&gt;to request,&lt;/font&gt;&lt;/i&gt;&lt;/div&gt;&lt;div style=&quot;font-size: 10px;&quot;&gt;&lt;i&gt;&lt;font style=&quot;font-size: 10px;&quot;&gt;missing data&lt;/font&gt;&lt;/i&gt;&lt;/div&gt;&lt;div style=&quot;font-size: 10px;&quot;&gt;&lt;i&gt;&lt;font style=&quot;font-size: 10px;&quot;&gt;from 0 Workers)&lt;br&gt;&lt;/font&gt;&lt;/i&gt;&lt;/div&gt;" style="edgeLabel;html=1;align=center;verticalAlign=middle;resizable=0;points=[];" vertex="1" connectable="0" parent="DGbr0V82XCEzaRGhNptX-86">
          <mxGeometry x="-0.2769" y="-1" relative="1" as="geometry">
            <mxPoint x="-14" y="4" as="offset" />
          </mxGeometry>
        </mxCell>
        <mxCell id="DGbr0V82XCEzaRGhNptX-88" style="edgeStyle=orthogonalEdgeStyle;rounded=0;orthogonalLoop=1;jettySize=auto;html=1;exitX=0.75;exitY=1;exitDx=0;exitDy=0;entryX=0;entryY=0.5;entryDx=0;entryDy=0;" edge="1" parent="1" source="DGbr0V82XCEzaRGhNptX-92" target="DGbr0V82XCEzaRGhNptX-145">
          <mxGeometry relative="1" as="geometry" />
        </mxCell>
        <mxCell id="DGbr0V82XCEzaRGhNptX-89" value="&lt;div style=&quot;font-size: 10px;&quot;&gt;&lt;font style=&quot;font-size: 10px;&quot;&gt;&lt;i&gt;(Timeout or Pd passed&lt;/i&gt;&lt;/font&gt;&lt;/div&gt;&lt;div style=&quot;font-size: 10px;&quot;&gt;&lt;font style=&quot;font-size: 10px;&quot;&gt;&lt;i&gt;w/ 1+ tasks remaining)&lt;br&gt;&lt;/i&gt;&lt;/font&gt;&lt;/div&gt;" style="edgeLabel;html=1;align=center;verticalAlign=middle;resizable=0;points=[];" vertex="1" connectable="0" parent="DGbr0V82XCEzaRGhNptX-88">
          <mxGeometry x="-0.011" y="2" relative="1" as="geometry">
            <mxPoint x="-3" as="offset" />
          </mxGeometry>
        </mxCell>
        <mxCell id="DGbr0V82XCEzaRGhNptX-90" style="edgeStyle=orthogonalEdgeStyle;rounded=0;orthogonalLoop=1;jettySize=auto;html=1;exitX=0.5;exitY=1;exitDx=0;exitDy=0;entryX=0;entryY=0.5;entryDx=0;entryDy=0;" edge="1" parent="1" source="DGbr0V82XCEzaRGhNptX-92" target="DGbr0V82XCEzaRGhNptX-146">
          <mxGeometry relative="1" as="geometry">
            <Array as="points">
              <mxPoint x="4840" y="2805" />
            </Array>
          </mxGeometry>
        </mxCell>
        <mxCell id="DGbr0V82XCEzaRGhNptX-91" value="&lt;div style=&quot;font-size: 10px;&quot;&gt;&lt;font style=&quot;font-size: 10px;&quot;&gt;&lt;i&gt;(Timeout or Pd passed&lt;/i&gt;&lt;/font&gt;&lt;/div&gt;&lt;div style=&quot;font-size: 10px;&quot;&gt;&lt;font style=&quot;font-size: 10px;&quot;&gt;&lt;i&gt;w/ 0 tasks remaining)&lt;br&gt;&lt;/i&gt;&lt;/font&gt;&lt;/div&gt;" style="edgeLabel;html=1;align=center;verticalAlign=middle;resizable=0;points=[];" vertex="1" connectable="0" parent="DGbr0V82XCEzaRGhNptX-90">
          <mxGeometry x="0.167" relative="1" as="geometry">
            <mxPoint x="14" y="-5" as="offset" />
          </mxGeometry>
        </mxCell>
        <mxCell id="DGbr0V82XCEzaRGhNptX-92" value="&lt;div&gt;&lt;b&gt;RECV_DATA&lt;/b&gt;:&lt;/div&gt;&lt;div&gt;Await message w/ data from Worker, or await GET_DATA request&lt;br&gt;&lt;/div&gt;" style="rounded=0;whiteSpace=wrap;html=1;" vertex="1" parent="1">
          <mxGeometry x="4770" y="2680" width="140" height="60" as="geometry" />
        </mxCell>
        <mxCell id="DGbr0V82XCEzaRGhNptX-93" style="edgeStyle=orthogonalEdgeStyle;rounded=0;orthogonalLoop=1;jettySize=auto;html=1;exitX=0;exitY=0.75;exitDx=0;exitDy=0;entryX=1;entryY=0.75;entryDx=0;entryDy=0;" edge="1" parent="1" source="DGbr0V82XCEzaRGhNptX-96" target="DGbr0V82XCEzaRGhNptX-81">
          <mxGeometry relative="1" as="geometry" />
        </mxCell>
        <mxCell id="DGbr0V82XCEzaRGhNptX-94" value="&lt;div style=&quot;font-size: 10px;&quot;&gt;&lt;font style=&quot;font-size: 10px;&quot;&gt;&lt;i&gt;(State was &lt;br&gt;&lt;/i&gt;&lt;/font&gt;&lt;/div&gt;&lt;div style=&quot;font-size: 10px;&quot;&gt;&lt;font style=&quot;font-size: 10px;&quot;&gt;&lt;i&gt;&quot;REQUEST_&lt;/i&gt;&lt;/font&gt;&lt;/div&gt;&lt;div style=&quot;font-size: 10px;&quot;&gt;&lt;font style=&quot;font-size: 10px;&quot;&gt;&lt;i&gt;DATA&quot;)&lt;/i&gt;&lt;/font&gt;&lt;/div&gt;" style="edgeLabel;html=1;align=center;verticalAlign=middle;resizable=0;points=[];" vertex="1" connectable="0" parent="DGbr0V82XCEzaRGhNptX-93">
          <mxGeometry x="0.2461" y="1" relative="1" as="geometry">
            <mxPoint x="11" y="-1" as="offset" />
          </mxGeometry>
        </mxCell>
        <mxCell id="DGbr0V82XCEzaRGhNptX-95" style="edgeStyle=orthogonalEdgeStyle;rounded=0;orthogonalLoop=1;jettySize=auto;html=1;exitX=0.5;exitY=1;exitDx=0;exitDy=0;entryX=1;entryY=0.25;entryDx=0;entryDy=0;" edge="1" parent="1" source="DGbr0V82XCEzaRGhNptX-96" target="DGbr0V82XCEzaRGhNptX-92">
          <mxGeometry relative="1" as="geometry" />
        </mxCell>
        <mxCell id="DGbr0V82XCEzaRGhNptX-96" value="Send message containing decrypted data to Worker" style="rounded=0;whiteSpace=wrap;html=1;" vertex="1" parent="1">
          <mxGeometry x="5010" y="2580" width="100" height="60" as="geometry" />
        </mxCell>
        <mxCell id="DGbr0V82XCEzaRGhNptX-97" value="" style="edgeStyle=orthogonalEdgeStyle;rounded=0;orthogonalLoop=1;jettySize=auto;html=1;exitX=0.25;exitY=1;exitDx=0;exitDy=0;entryX=0.25;entryY=0;entryDx=0;entryDy=0;" edge="1" parent="1" source="DGbr0V82XCEzaRGhNptX-102" target="DGbr0V82XCEzaRGhNptX-108">
          <mxGeometry relative="1" as="geometry" />
        </mxCell>
        <mxCell id="DGbr0V82XCEzaRGhNptX-98" style="edgeStyle=orthogonalEdgeStyle;rounded=0;orthogonalLoop=1;jettySize=auto;html=1;exitX=1;exitY=0.25;exitDx=0;exitDy=0;entryX=1;entryY=0.5;entryDx=0;entryDy=0;" edge="1" parent="1" source="DGbr0V82XCEzaRGhNptX-102" target="DGbr0V82XCEzaRGhNptX-146">
          <mxGeometry relative="1" as="geometry">
            <Array as="points">
              <mxPoint x="5100" y="2835" />
              <mxPoint x="5100" y="2805" />
            </Array>
          </mxGeometry>
        </mxCell>
        <mxCell id="DGbr0V82XCEzaRGhNptX-99" value="&lt;div style=&quot;font-size: 10px;&quot;&gt;&lt;font style=&quot;font-size: 10px;&quot;&gt;&lt;i&gt;(Pd passed w/ 0 tasks remaining)&lt;/i&gt;&lt;/font&gt;&lt;/div&gt;" style="edgeLabel;html=1;align=center;verticalAlign=middle;resizable=0;points=[];" vertex="1" connectable="0" parent="DGbr0V82XCEzaRGhNptX-98">
          <mxGeometry x="-0.3852" y="2" relative="1" as="geometry">
            <mxPoint x="22" y="1" as="offset" />
          </mxGeometry>
        </mxCell>
        <mxCell id="DGbr0V82XCEzaRGhNptX-100" style="edgeStyle=orthogonalEdgeStyle;rounded=0;orthogonalLoop=1;jettySize=auto;html=1;exitX=1;exitY=0.5;exitDx=0;exitDy=0;entryX=1;entryY=0.5;entryDx=0;entryDy=0;" edge="1" parent="1" source="DGbr0V82XCEzaRGhNptX-102" target="DGbr0V82XCEzaRGhNptX-145">
          <mxGeometry relative="1" as="geometry">
            <Array as="points">
              <mxPoint x="5120" y="2850" />
              <mxPoint x="5120" y="2765" />
            </Array>
          </mxGeometry>
        </mxCell>
        <mxCell id="DGbr0V82XCEzaRGhNptX-101" value="&lt;div style=&quot;font-size: 10px;&quot;&gt;&lt;font style=&quot;font-size: 10px;&quot;&gt;&lt;i&gt;(Pd passed w/ 1+ tasks remaining)&lt;/i&gt;&lt;/font&gt;&lt;/div&gt;" style="edgeLabel;html=1;align=center;verticalAlign=middle;resizable=0;points=[];" vertex="1" connectable="0" parent="DGbr0V82XCEzaRGhNptX-100">
          <mxGeometry x="-0.1735" y="1" relative="1" as="geometry">
            <mxPoint x="-42" as="offset" />
          </mxGeometry>
        </mxCell>
        <mxCell id="DGbr0V82XCEzaRGhNptX-102" value="&lt;div&gt;&lt;b&gt;VERIFY&lt;/b&gt;:&lt;/div&gt;&lt;div&gt;Run CATD algorithm to evaluate all worker data&lt;br&gt;&lt;/div&gt;" style="rounded=0;whiteSpace=wrap;html=1;strokeWidth=2;" vertex="1" parent="1">
          <mxGeometry x="4770" y="2820" width="140" height="60" as="geometry" />
        </mxCell>
        <mxCell id="DGbr0V82XCEzaRGhNptX-103" value="" style="edgeStyle=orthogonalEdgeStyle;rounded=0;orthogonalLoop=1;jettySize=auto;html=1;entryX=0;entryY=0.75;entryDx=0;entryDy=0;exitX=1;exitY=0.75;exitDx=0;exitDy=0;" edge="1" parent="1" source="DGbr0V82XCEzaRGhNptX-108" target="DGbr0V82XCEzaRGhNptX-113">
          <mxGeometry relative="1" as="geometry" />
        </mxCell>
        <mxCell id="DGbr0V82XCEzaRGhNptX-104" style="edgeStyle=orthogonalEdgeStyle;rounded=0;orthogonalLoop=1;jettySize=auto;html=1;exitX=1;exitY=0.5;exitDx=0;exitDy=0;entryX=1;entryY=0.5;entryDx=0;entryDy=0;" edge="1" parent="1" source="DGbr0V82XCEzaRGhNptX-108" target="DGbr0V82XCEzaRGhNptX-143">
          <mxGeometry relative="1" as="geometry">
            <Array as="points">
              <mxPoint x="5040" y="2950" />
              <mxPoint x="5040" y="2890" />
              <mxPoint x="5230" y="2890" />
              <mxPoint x="5230" y="2390" />
            </Array>
          </mxGeometry>
        </mxCell>
        <mxCell id="DGbr0V82XCEzaRGhNptX-105" value="&lt;div style=&quot;font-size: 10px;&quot;&gt;&lt;font style=&quot;font-size: 10px;&quot;&gt;&lt;i&gt;(Pd passed w/ &lt;br&gt;&lt;/i&gt;&lt;/font&gt;&lt;/div&gt;&lt;div style=&quot;font-size: 10px;&quot;&gt;&lt;font style=&quot;font-size: 10px;&quot;&gt;&lt;i&gt;0 tasks remaining)&lt;/i&gt;&lt;/font&gt;&lt;/div&gt;" style="edgeLabel;html=1;align=center;verticalAlign=middle;resizable=0;points=[];" vertex="1" connectable="0" parent="DGbr0V82XCEzaRGhNptX-104">
          <mxGeometry x="-0.8466" y="2" relative="1" as="geometry">
            <mxPoint x="-12" y="-5" as="offset" />
          </mxGeometry>
        </mxCell>
        <mxCell id="DGbr0V82XCEzaRGhNptX-106" style="edgeStyle=orthogonalEdgeStyle;rounded=0;orthogonalLoop=1;jettySize=auto;html=1;exitX=0.5;exitY=0;exitDx=0;exitDy=0;entryX=0;entryY=0.5;entryDx=0;entryDy=0;" edge="1" parent="1" source="DGbr0V82XCEzaRGhNptX-108" target="DGbr0V82XCEzaRGhNptX-147">
          <mxGeometry relative="1" as="geometry">
            <Array as="points">
              <mxPoint x="4840" y="2905" />
            </Array>
          </mxGeometry>
        </mxCell>
        <mxCell id="DGbr0V82XCEzaRGhNptX-107" value="&lt;div style=&quot;font-size: 10px;&quot;&gt;&lt;font style=&quot;font-size: 10px;&quot;&gt;&lt;i&gt;(Pd passed w/ &lt;br&gt;&lt;/i&gt;&lt;/font&gt;&lt;/div&gt;&lt;div style=&quot;font-size: 10px;&quot;&gt;&lt;font style=&quot;font-size: 10px;&quot;&gt;&lt;i&gt;1+ tasks remaining)&lt;/i&gt;&lt;/font&gt;&lt;/div&gt;" style="edgeLabel;html=1;align=center;verticalAlign=middle;resizable=0;points=[];" vertex="1" connectable="0" parent="DGbr0V82XCEzaRGhNptX-106">
          <mxGeometry x="-0.1358" relative="1" as="geometry">
            <mxPoint y="-5" as="offset" />
          </mxGeometry>
        </mxCell>
        <mxCell id="DGbr0V82XCEzaRGhNptX-108" value="&lt;div&gt;&lt;b&gt;SEND_SUBMIT_EVAL&lt;/b&gt;:&lt;/div&gt;&lt;div&gt;Send evaluation results to TSC&lt;br&gt;&lt;/div&gt;" style="rounded=0;whiteSpace=wrap;html=1;" vertex="1" parent="1">
          <mxGeometry x="4770" y="2920" width="140" height="60" as="geometry" />
        </mxCell>
        <mxCell id="DGbr0V82XCEzaRGhNptX-109" style="edgeStyle=orthogonalEdgeStyle;rounded=0;orthogonalLoop=1;jettySize=auto;html=1;exitX=1;exitY=0.5;exitDx=0;exitDy=0;entryX=0.5;entryY=0;entryDx=0;entryDy=0;" edge="1" parent="1" source="DGbr0V82XCEzaRGhNptX-113" target="DGbr0V82XCEzaRGhNptX-32">
          <mxGeometry relative="1" as="geometry">
            <Array as="points">
              <mxPoint x="5260" y="2950" />
              <mxPoint x="5260" y="2320" />
              <mxPoint x="4500" y="2320" />
            </Array>
          </mxGeometry>
        </mxCell>
        <mxCell id="DGbr0V82XCEzaRGhNptX-110" value="&lt;font style=&quot;font-size: 10px;&quot;&gt;&lt;i&gt;(Timeout,&lt;/i&gt;&lt;/font&gt;&lt;div style=&quot;font-size: 10px;&quot;&gt;&lt;font style=&quot;font-size: 10px;&quot;&gt;&lt;i&gt;Pd passed,&lt;/i&gt;&lt;/font&gt;&lt;/div&gt;&lt;div style=&quot;font-size: 10px;&quot;&gt;&lt;font style=&quot;font-size: 10px;&quot;&gt;&lt;i&gt;or receive&lt;/i&gt;&lt;/font&gt;&lt;/div&gt;&lt;div style=&quot;font-size: 10px;&quot;&gt;&lt;font style=&quot;font-size: 10px;&quot;&gt;&lt;i&gt;ACK w/ 1+ &lt;br&gt;&lt;/i&gt;&lt;/font&gt;&lt;/div&gt;&lt;div style=&quot;font-size: 10px;&quot;&gt;&lt;font style=&quot;font-size: 10px;&quot;&gt;&lt;i&gt;confirmed&lt;/i&gt;&lt;/font&gt;&lt;/div&gt;&lt;div style=&quot;font-size: 10px;&quot;&gt;&lt;font style=&quot;font-size: 10px;&quot;&gt;&lt;i&gt;tasks &lt;br&gt;&lt;/i&gt;&lt;/font&gt;&lt;/div&gt;&lt;div style=&quot;font-size: 10px;&quot;&gt;&lt;font style=&quot;font-size: 10px;&quot;&gt;&lt;i&gt;remaining)&lt;br&gt;&lt;/i&gt;&lt;/font&gt;&lt;/div&gt;" style="edgeLabel;html=1;align=center;verticalAlign=middle;resizable=0;points=[];" vertex="1" connectable="0" parent="DGbr0V82XCEzaRGhNptX-109">
          <mxGeometry x="-0.9428" relative="1" as="geometry">
            <mxPoint x="-8" y="-1" as="offset" />
          </mxGeometry>
        </mxCell>
        <mxCell id="DGbr0V82XCEzaRGhNptX-111" style="edgeStyle=orthogonalEdgeStyle;rounded=0;orthogonalLoop=1;jettySize=auto;html=1;exitX=0.5;exitY=1;exitDx=0;exitDy=0;entryX=0;entryY=0.5;entryDx=0;entryDy=0;" edge="1" parent="1" source="DGbr0V82XCEzaRGhNptX-113" target="DGbr0V82XCEzaRGhNptX-16">
          <mxGeometry relative="1" as="geometry">
            <mxPoint x="5210" y="3005" as="targetPoint" />
            <Array as="points">
              <mxPoint x="5120" y="3010" />
              <mxPoint x="3960" y="3010" />
              <mxPoint x="3960" y="2730" />
            </Array>
          </mxGeometry>
        </mxCell>
        <mxCell id="DGbr0V82XCEzaRGhNptX-112" value="&lt;div style=&quot;font-size: 10px;&quot;&gt;&lt;font style=&quot;font-size: 10px;&quot;&gt;&lt;i&gt;(Timeout, Pd passed, or receive ACK&lt;/i&gt;&lt;/font&gt;&lt;/div&gt;&lt;div style=&quot;font-size: 10px;&quot;&gt;&lt;font style=&quot;font-size: 10px;&quot;&gt;&lt;i&gt;w/ 0 confirmed tasks remaining)&lt;br&gt;&lt;/i&gt;&lt;/font&gt;&lt;/div&gt;" style="edgeLabel;html=1;align=center;verticalAlign=middle;resizable=0;points=[];" vertex="1" connectable="0" parent="DGbr0V82XCEzaRGhNptX-111">
          <mxGeometry x="-0.1411" y="2" relative="1" as="geometry">
            <mxPoint x="542" y="-10" as="offset" />
          </mxGeometry>
        </mxCell>
        <mxCell id="DGbr0V82XCEzaRGhNptX-113" value="&lt;div&gt;&lt;b&gt;RECV_SUBMIT_EVAL&lt;/b&gt;:&lt;/div&gt;&lt;div&gt;Await ACK for evaluation results from TSC&lt;br&gt;&lt;/div&gt;" style="rounded=0;whiteSpace=wrap;html=1;" vertex="1" parent="1">
          <mxGeometry x="5050" y="2920" width="140" height="60" as="geometry" />
        </mxCell>
        <mxCell id="DGbr0V82XCEzaRGhNptX-114" style="edgeStyle=orthogonalEdgeStyle;rounded=0;orthogonalLoop=1;jettySize=auto;html=1;exitX=0.25;exitY=0;exitDx=0;exitDy=0;entryX=1;entryY=0.5;entryDx=0;entryDy=0;" edge="1" parent="1" source="DGbr0V82XCEzaRGhNptX-118" target="DGbr0V82XCEzaRGhNptX-18">
          <mxGeometry relative="1" as="geometry" />
        </mxCell>
        <mxCell id="DGbr0V82XCEzaRGhNptX-115" value="&lt;div style=&quot;font-size: 10px;&quot;&gt;&lt;font style=&quot;font-size: 10px;&quot;&gt;&lt;i&gt;(1+ tasks left&lt;br&gt;&lt;/i&gt;&lt;/font&gt;&lt;/div&gt;&lt;div style=&quot;font-size: 10px;&quot;&gt;&lt;font style=&quot;font-size: 10px;&quot;&gt;&lt;i&gt;to confirm)&lt;br&gt;&lt;/i&gt;&lt;/font&gt;&lt;/div&gt;" style="edgeLabel;html=1;align=center;verticalAlign=middle;resizable=0;points=[];" vertex="1" connectable="0" parent="DGbr0V82XCEzaRGhNptX-114">
          <mxGeometry x="-0.6888" y="-1" relative="1" as="geometry">
            <mxPoint x="-40" y="-29" as="offset" />
          </mxGeometry>
        </mxCell>
        <mxCell id="DGbr0V82XCEzaRGhNptX-116" style="edgeStyle=orthogonalEdgeStyle;rounded=0;orthogonalLoop=1;jettySize=auto;html=1;exitX=0.75;exitY=0;exitDx=0;exitDy=0;entryX=0;entryY=0.5;entryDx=0;entryDy=0;" edge="1" parent="1" source="DGbr0V82XCEzaRGhNptX-118" target="DGbr0V82XCEzaRGhNptX-32">
          <mxGeometry relative="1" as="geometry">
            <Array as="points">
              <mxPoint x="4305" y="2830" />
              <mxPoint x="4340" y="2830" />
              <mxPoint x="4340" y="2390" />
            </Array>
          </mxGeometry>
        </mxCell>
        <mxCell id="DGbr0V82XCEzaRGhNptX-117" value="&lt;div style=&quot;font-size: 10px;&quot;&gt;&lt;font style=&quot;font-size: 10px;&quot;&gt;&lt;i&gt;(0 tasks&lt;/i&gt;&lt;/font&gt;&lt;/div&gt;&lt;div style=&quot;font-size: 10px;&quot;&gt;&lt;font style=&quot;font-size: 10px;&quot;&gt;&lt;i&gt;left to&lt;/i&gt;&lt;/font&gt;&lt;/div&gt;&lt;div style=&quot;font-size: 10px;&quot;&gt;&lt;font style=&quot;font-size: 10px;&quot;&gt;&lt;i&gt;confirm)&lt;br&gt;&lt;/i&gt;&lt;/font&gt;&lt;/div&gt;" style="edgeLabel;html=1;align=center;verticalAlign=middle;resizable=0;points=[];" vertex="1" connectable="0" parent="DGbr0V82XCEzaRGhNptX-116">
          <mxGeometry x="-0.914" y="-3" relative="1" as="geometry">
            <mxPoint x="2" y="-25" as="offset" />
          </mxGeometry>
        </mxCell>
        <mxCell id="DGbr0V82XCEzaRGhNptX-118" value="Add task to list of confirmed tasks" style="rounded=0;whiteSpace=wrap;html=1;" vertex="1" parent="1">
          <mxGeometry x="4260" y="2880" width="60" height="60" as="geometry" />
        </mxCell>
        <mxCell id="DGbr0V82XCEzaRGhNptX-119" value="&lt;div&gt;&lt;font style=&quot;font-size: 10px;&quot;&gt;&lt;i&gt;(State was &quot;RECV_DATA&quot;)&lt;/i&gt;&lt;/font&gt;&lt;/div&gt;" style="edgeLabel;html=1;align=center;verticalAlign=middle;resizable=0;points=[];" vertex="1" connectable="0" parent="1">
          <mxGeometry x="4989.996153846154" y="2691" as="geometry" />
        </mxCell>
        <mxCell id="DGbr0V82XCEzaRGhNptX-120" style="edgeStyle=orthogonalEdgeStyle;rounded=0;orthogonalLoop=1;jettySize=auto;html=1;exitX=0.75;exitY=0;exitDx=0;exitDy=0;entryX=1;entryY=0;entryDx=0;entryDy=0;" edge="1" parent="1" source="DGbr0V82XCEzaRGhNptX-126" target="DGbr0V82XCEzaRGhNptX-81">
          <mxGeometry relative="1" as="geometry">
            <mxPoint x="5140" y="2680" as="sourcePoint" />
            <Array as="points">
              <mxPoint x="5165" y="2560" />
              <mxPoint x="4910" y="2560" />
            </Array>
          </mxGeometry>
        </mxCell>
        <mxCell id="DGbr0V82XCEzaRGhNptX-121" value="&lt;div style=&quot;font-size: 10px;&quot;&gt;&lt;font style=&quot;font-size: 10px;&quot;&gt;&lt;i&gt;(1+ Workers&lt;/i&gt;&lt;/font&gt;&lt;/div&gt;&lt;div style=&quot;font-size: 10px;&quot;&gt;&lt;font style=&quot;font-size: 10px;&quot;&gt;&lt;i&gt;left to request)&lt;br&gt;&lt;/i&gt;&lt;/font&gt;&lt;/div&gt;" style="edgeLabel;html=1;align=center;verticalAlign=middle;resizable=0;points=[];" vertex="1" connectable="0" parent="DGbr0V82XCEzaRGhNptX-120">
          <mxGeometry x="-0.823" y="-1" relative="1" as="geometry">
            <mxPoint x="-1" y="15" as="offset" />
          </mxGeometry>
        </mxCell>
        <mxCell id="DGbr0V82XCEzaRGhNptX-122" style="edgeStyle=orthogonalEdgeStyle;rounded=0;orthogonalLoop=1;jettySize=auto;html=1;exitX=0;exitY=0.75;exitDx=0;exitDy=0;entryX=1;entryY=0.75;entryDx=0;entryDy=0;" edge="1" parent="1" source="DGbr0V82XCEzaRGhNptX-126" target="DGbr0V82XCEzaRGhNptX-92">
          <mxGeometry relative="1" as="geometry">
            <mxPoint x="5115" y="2740" as="sourcePoint" />
            <Array as="points">
              <mxPoint x="4990" y="2725" />
              <mxPoint x="4990" y="2725" />
            </Array>
          </mxGeometry>
        </mxCell>
        <mxCell id="DGbr0V82XCEzaRGhNptX-123" value="&lt;div style=&quot;font-size: 10px;&quot;&gt;&lt;font style=&quot;font-size: 10px;&quot;&gt;&lt;i&gt;(0 Workers left to request,&lt;/i&gt;&lt;/font&gt;&lt;/div&gt;&lt;div style=&quot;font-size: 10px;&quot;&gt;&lt;font style=&quot;font-size: 10px;&quot;&gt;&lt;i&gt;missing data from 1+ Worker)&lt;br&gt;&lt;/i&gt;&lt;/font&gt;&lt;/div&gt;" style="edgeLabel;html=1;align=center;verticalAlign=middle;resizable=0;points=[];" vertex="1" connectable="0" parent="DGbr0V82XCEzaRGhNptX-122">
          <mxGeometry x="-0.0088" y="1" relative="1" as="geometry">
            <mxPoint y="7" as="offset" />
          </mxGeometry>
        </mxCell>
        <mxCell id="DGbr0V82XCEzaRGhNptX-124" style="edgeStyle=orthogonalEdgeStyle;rounded=0;orthogonalLoop=1;jettySize=auto;html=1;exitX=0.75;exitY=1;exitDx=0;exitDy=0;entryX=1;entryY=0.75;entryDx=0;entryDy=0;" edge="1" parent="1" source="DGbr0V82XCEzaRGhNptX-126" target="DGbr0V82XCEzaRGhNptX-102">
          <mxGeometry relative="1" as="geometry">
            <mxPoint x="5140" y="2740" as="sourcePoint" />
            <Array as="points">
              <mxPoint x="5165" y="2865" />
            </Array>
          </mxGeometry>
        </mxCell>
        <mxCell id="DGbr0V82XCEzaRGhNptX-125" value="&lt;div style=&quot;font-size: 10px;&quot;&gt;&lt;font style=&quot;font-size: 10px;&quot;&gt;&lt;i&gt;(0 Workers left &lt;br&gt;&lt;/i&gt;&lt;/font&gt;&lt;/div&gt;&lt;div style=&quot;font-size: 10px;&quot;&gt;&lt;font style=&quot;font-size: 10px;&quot;&gt;&lt;i&gt;to request,&lt;/i&gt;&lt;/font&gt;&lt;/div&gt;&lt;div style=&quot;font-size: 10px;&quot;&gt;&lt;font style=&quot;font-size: 10px;&quot;&gt;&lt;i&gt;missing data &lt;br&gt;&lt;/i&gt;&lt;/font&gt;&lt;/div&gt;&lt;div style=&quot;font-size: 10px;&quot;&gt;&lt;font style=&quot;font-size: 10px;&quot;&gt;&lt;i&gt;from 0 Workers)&lt;br&gt;&lt;/i&gt;&lt;/font&gt;&lt;/div&gt;" style="edgeLabel;html=1;align=center;verticalAlign=middle;resizable=0;points=[];" vertex="1" connectable="0" parent="DGbr0V82XCEzaRGhNptX-124">
          <mxGeometry x="-0.9017" relative="1" as="geometry">
            <mxPoint x="2" y="12" as="offset" />
          </mxGeometry>
        </mxCell>
        <mxCell id="DGbr0V82XCEzaRGhNptX-126" value="Store data, add Worker to list of recipients" style="rounded=0;whiteSpace=wrap;html=1;" vertex="1" parent="1">
          <mxGeometry x="5090" y="2680" width="100" height="60" as="geometry" />
        </mxCell>
        <mxCell id="DGbr0V82XCEzaRGhNptX-127" value="TERMINATED" style="rounded=0;whiteSpace=wrap;html=1;fontStyle=1;strokeWidth=2;" vertex="1" parent="1">
          <mxGeometry x="4235" y="2630" width="80" height="40" as="geometry" />
        </mxCell>
        <mxCell id="DGbr0V82XCEzaRGhNptX-128" value="&lt;div&gt;Go to &lt;b&gt;SEND_&lt;/b&gt;&lt;/div&gt;&lt;div&gt;&lt;b&gt;QUERY_&lt;/b&gt;&lt;/div&gt;&lt;div&gt;&lt;b&gt;TASKS&lt;/b&gt;&lt;br&gt;&lt;/div&gt;" style="rounded=0;whiteSpace=wrap;html=1;strokeColor=default;dashed=1;" vertex="1" parent="1">
          <mxGeometry x="4670" y="2360" width="60" height="60" as="geometry" />
        </mxCell>
        <mxCell id="DGbr0V82XCEzaRGhNptX-129" style="edgeStyle=orthogonalEdgeStyle;rounded=0;orthogonalLoop=1;jettySize=auto;html=1;exitX=0.25;exitY=0;exitDx=0;exitDy=0;entryX=0;entryY=0.25;entryDx=0;entryDy=0;" edge="1" parent="1" source="DGbr0V82XCEzaRGhNptX-32" target="DGbr0V82XCEzaRGhNptX-32">
          <mxGeometry relative="1" as="geometry">
            <Array as="points">
              <mxPoint x="4445" y="2360" />
              <mxPoint x="4445" y="2340" />
              <mxPoint x="4410" y="2340" />
              <mxPoint x="4410" y="2375" />
            </Array>
          </mxGeometry>
        </mxCell>
        <mxCell id="DGbr0V82XCEzaRGhNptX-130" value="&lt;div style=&quot;font-size: 10px;&quot;&gt;&lt;font style=&quot;font-size: 10px;&quot;&gt;&lt;i&gt;(Timeout or Sd passed&lt;/i&gt;&lt;/font&gt;&lt;/div&gt;&lt;div style=&quot;font-size: 10px;&quot;&gt;&lt;font style=&quot;font-size: 10px;&quot;&gt;&lt;i&gt;w/ 1+ tasks remaining)&lt;br&gt;&lt;/i&gt;&lt;/font&gt;&lt;/div&gt;" style="edgeLabel;html=1;align=center;verticalAlign=middle;resizable=0;points=[];" vertex="1" connectable="0" parent="DGbr0V82XCEzaRGhNptX-129">
          <mxGeometry x="-0.1924" y="3" relative="1" as="geometry">
            <mxPoint x="-6" y="-18" as="offset" />
          </mxGeometry>
        </mxCell>
        <mxCell id="DGbr0V82XCEzaRGhNptX-131" style="edgeStyle=orthogonalEdgeStyle;rounded=0;orthogonalLoop=1;jettySize=auto;html=1;exitX=1;exitY=0.5;exitDx=0;exitDy=0;entryX=0.5;entryY=1;entryDx=0;entryDy=0;" edge="1" parent="1" target="DGbr0V82XCEzaRGhNptX-128">
          <mxGeometry relative="1" as="geometry">
            <mxPoint x="4570" y="2630" as="sourcePoint" />
            <mxPoint x="4670" y="2630" as="targetPoint" />
          </mxGeometry>
        </mxCell>
        <mxCell id="DGbr0V82XCEzaRGhNptX-132" value="&lt;div style=&quot;font-size: 10px;&quot;&gt;&lt;font style=&quot;font-size: 10px;&quot;&gt;&lt;i&gt;(Timeout, or Sd&lt;/i&gt;&lt;/font&gt;&lt;/div&gt;&lt;div style=&quot;font-size: 10px;&quot;&gt;&lt;font style=&quot;font-size: 10px;&quot;&gt;&lt;i&gt;passed w/ 0 &lt;br&gt;&lt;/i&gt;&lt;/font&gt;&lt;/div&gt;&lt;div style=&quot;font-size: 10px;&quot;&gt;&lt;font style=&quot;font-size: 10px;&quot;&gt;&lt;i&gt;tasks remaining)&lt;br&gt;&lt;/i&gt;&lt;/font&gt;&lt;/div&gt;" style="edgeLabel;html=1;align=center;verticalAlign=middle;resizable=0;points=[];" vertex="1" connectable="0" parent="DGbr0V82XCEzaRGhNptX-131">
          <mxGeometry x="-0.0938" y="1" relative="1" as="geometry">
            <mxPoint x="-76" y="20" as="offset" />
          </mxGeometry>
        </mxCell>
        <mxCell id="DGbr0V82XCEzaRGhNptX-133" value="" style="edgeStyle=orthogonalEdgeStyle;rounded=0;orthogonalLoop=1;jettySize=auto;html=1;entryX=0;entryY=0.75;entryDx=0;entryDy=0;exitX=1;exitY=0.75;exitDx=0;exitDy=0;" edge="1" parent="1" source="DGbr0V82XCEzaRGhNptX-137" target="DGbr0V82XCEzaRGhNptX-139">
          <mxGeometry relative="1" as="geometry" />
        </mxCell>
        <mxCell id="DGbr0V82XCEzaRGhNptX-134" value="&lt;div style=&quot;font-size: 10px;&quot;&gt;&lt;font style=&quot;font-size: 10px;&quot;&gt;&lt;i&gt;(Receive&lt;/i&gt;&lt;/font&gt;&lt;/div&gt;&lt;div style=&quot;font-size: 10px;&quot;&gt;&lt;font style=&quot;font-size: 10px;&quot;&gt;&lt;i&gt;WEIGHTS)&lt;/i&gt;&lt;/font&gt;&lt;/div&gt;" style="edgeLabel;html=1;align=center;verticalAlign=middle;resizable=0;points=[];" vertex="1" connectable="0" parent="DGbr0V82XCEzaRGhNptX-133">
          <mxGeometry relative="1" as="geometry">
            <mxPoint x="-5" as="offset" />
          </mxGeometry>
        </mxCell>
        <mxCell id="DGbr0V82XCEzaRGhNptX-135" style="edgeStyle=orthogonalEdgeStyle;rounded=0;orthogonalLoop=1;jettySize=auto;html=1;exitX=0;exitY=0.5;exitDx=0;exitDy=0;entryX=0;entryY=0.75;entryDx=0;entryDy=0;" edge="1" parent="1" source="DGbr0V82XCEzaRGhNptX-137" target="DGbr0V82XCEzaRGhNptX-32">
          <mxGeometry relative="1" as="geometry">
            <Array as="points">
              <mxPoint x="4360" y="2930" />
              <mxPoint x="4360" y="2405" />
            </Array>
          </mxGeometry>
        </mxCell>
        <mxCell id="DGbr0V82XCEzaRGhNptX-136" value="&lt;div style=&quot;font-size: 10px;&quot;&gt;&lt;font style=&quot;font-size: 10px;&quot;&gt;&lt;i&gt;(Timeout, or &lt;br&gt;&lt;/i&gt;&lt;/font&gt;&lt;/div&gt;&lt;div style=&quot;font-size: 10px;&quot;&gt;&lt;font style=&quot;font-size: 10px;&quot;&gt;&lt;i&gt;Pd passed&lt;/i&gt;&lt;/font&gt;&lt;/div&gt;&lt;div style=&quot;font-size: 10px;&quot;&gt;&lt;font style=&quot;font-size: 10px;&quot;&gt;&lt;i&gt;&amp;nbsp;w/ 1+ tasks &lt;br&gt;&lt;/i&gt;&lt;/font&gt;&lt;/div&gt;&lt;div style=&quot;font-size: 10px;&quot;&gt;&lt;font style=&quot;font-size: 10px;&quot;&gt;&lt;i&gt;remaining)&lt;br&gt;&lt;/i&gt;&lt;/font&gt;&lt;/div&gt;" style="edgeLabel;html=1;align=center;verticalAlign=middle;resizable=0;points=[];" vertex="1" connectable="0" parent="DGbr0V82XCEzaRGhNptX-135">
          <mxGeometry x="-0.8826" y="-1" relative="1" as="geometry">
            <mxPoint x="2" as="offset" />
          </mxGeometry>
        </mxCell>
        <mxCell id="DGbr0V82XCEzaRGhNptX-137" value="&lt;div&gt;&lt;b&gt;RECV_WEIGHTS&lt;/b&gt;:&lt;/div&gt;&lt;div&gt;Await calculated worker weights (w/ worker Pks) from Requester&lt;br&gt;&lt;/div&gt;" style="rounded=0;whiteSpace=wrap;html=1;" vertex="1" parent="1">
          <mxGeometry x="4430" y="2900" width="140" height="60" as="geometry" />
        </mxCell>
        <mxCell id="DGbr0V82XCEzaRGhNptX-138" style="edgeStyle=orthogonalEdgeStyle;rounded=0;orthogonalLoop=1;jettySize=auto;html=1;exitX=1;exitY=0.5;exitDx=0;exitDy=0;entryX=0.5;entryY=0;entryDx=0;entryDy=0;" edge="1" parent="1" source="DGbr0V82XCEzaRGhNptX-139" target="DGbr0V82XCEzaRGhNptX-66">
          <mxGeometry relative="1" as="geometry">
            <Array as="points">
              <mxPoint x="4740" y="2965" />
              <mxPoint x="4740" y="2340" />
              <mxPoint x="4840" y="2340" />
            </Array>
          </mxGeometry>
        </mxCell>
        <mxCell id="DGbr0V82XCEzaRGhNptX-139" value="Send ACK for weights to Requester" style="rounded=0;whiteSpace=wrap;html=1;" vertex="1" parent="1">
          <mxGeometry x="4630" y="2940" width="80" height="50" as="geometry" />
        </mxCell>
        <mxCell id="DGbr0V82XCEzaRGhNptX-140" style="edgeStyle=orthogonalEdgeStyle;rounded=0;orthogonalLoop=1;jettySize=auto;html=1;exitX=1;exitY=0.25;exitDx=0;exitDy=0;entryX=0.5;entryY=1;entryDx=0;entryDy=0;" edge="1" parent="1" source="DGbr0V82XCEzaRGhNptX-137" target="DGbr0V82XCEzaRGhNptX-128">
          <mxGeometry relative="1" as="geometry" />
        </mxCell>
        <mxCell id="DGbr0V82XCEzaRGhNptX-141" value="&lt;div style=&quot;font-size: 10px;&quot;&gt;&lt;font style=&quot;font-size: 10px;&quot;&gt;&lt;i&gt;(Timeout or Pd&lt;/i&gt;&lt;/font&gt;&lt;/div&gt;&lt;div style=&quot;font-size: 10px;&quot;&gt;&lt;font style=&quot;font-size: 10px;&quot;&gt;&lt;i&gt;passed w/ 0 &lt;br&gt;&lt;/i&gt;&lt;/font&gt;&lt;/div&gt;&lt;div style=&quot;font-size: 10px;&quot;&gt;&lt;font style=&quot;font-size: 10px;&quot;&gt;&lt;i&gt;tasks remaining)&lt;br&gt;&lt;/i&gt;&lt;/font&gt;&lt;/div&gt;" style="edgeLabel;html=1;align=center;verticalAlign=middle;resizable=0;points=[];" vertex="1" connectable="0" parent="DGbr0V82XCEzaRGhNptX-140">
          <mxGeometry x="-0.8369" y="1" relative="1" as="geometry">
            <mxPoint x="4" y="-10" as="offset" />
          </mxGeometry>
        </mxCell>
        <mxCell id="DGbr0V82XCEzaRGhNptX-142" value="&lt;div&gt;Go to&lt;/div&gt;&lt;div&gt;&lt;b&gt;RECV_&lt;/b&gt;&lt;/div&gt;&lt;div&gt;&lt;b&gt;SEND_&lt;/b&gt;&lt;/div&gt;&lt;div&gt;&lt;b&gt;KEY&lt;/b&gt;&lt;br&gt;&lt;/div&gt;" style="rounded=0;whiteSpace=wrap;html=1;strokeColor=default;dashed=1;" vertex="1" parent="1">
          <mxGeometry x="5010" y="2360" width="60" height="60" as="geometry" />
        </mxCell>
        <mxCell id="DGbr0V82XCEzaRGhNptX-143" value="&lt;div&gt;Go to &lt;b&gt;SEND_&lt;/b&gt;&lt;/div&gt;&lt;div&gt;&lt;b&gt;QUERY_&lt;/b&gt;&lt;/div&gt;&lt;div&gt;&lt;b&gt;TASKS&lt;/b&gt;&lt;br&gt;&lt;/div&gt;" style="rounded=0;whiteSpace=wrap;html=1;strokeColor=default;dashed=1;" vertex="1" parent="1">
          <mxGeometry x="5090" y="2360" width="60" height="60" as="geometry" />
        </mxCell>
        <mxCell id="DGbr0V82XCEzaRGhNptX-144" value="&lt;div&gt;Go to&lt;b&gt; RECV_&lt;/b&gt;&lt;/div&gt;&lt;div&gt;&lt;b&gt;SEND_KEY&lt;/b&gt;&lt;br&gt;&lt;/div&gt;" style="rounded=0;whiteSpace=wrap;html=1;strokeColor=default;dashed=1;" vertex="1" parent="1">
          <mxGeometry x="5080" y="2500" width="90" height="30" as="geometry" />
        </mxCell>
        <mxCell id="DGbr0V82XCEzaRGhNptX-145" value="&lt;div&gt;Go to&lt;b&gt; RECV_&lt;/b&gt;&lt;/div&gt;&lt;div&gt;&lt;b&gt;SEND_KEY&lt;/b&gt;&lt;br&gt;&lt;/div&gt;" style="rounded=0;whiteSpace=wrap;html=1;strokeColor=default;dashed=1;" vertex="1" parent="1">
          <mxGeometry x="4990" y="2750" width="90" height="30" as="geometry" />
        </mxCell>
        <mxCell id="DGbr0V82XCEzaRGhNptX-146" value="&lt;div&gt;Go to&lt;b&gt; SEND_&lt;/b&gt;&lt;/div&gt;&lt;div&gt;&lt;b&gt;QUERY_TASKS&lt;br&gt;&lt;/b&gt;&lt;/div&gt;" style="rounded=0;whiteSpace=wrap;html=1;strokeColor=default;dashed=1;" vertex="1" parent="1">
          <mxGeometry x="4990" y="2790" width="90" height="30" as="geometry" />
        </mxCell>
        <mxCell id="DGbr0V82XCEzaRGhNptX-147" value="&lt;div&gt;Go to&lt;b&gt; RECV_&lt;/b&gt;&lt;/div&gt;&lt;div&gt;&lt;b&gt;SEND_KEY&lt;/b&gt;&lt;br&gt;&lt;/div&gt;" style="rounded=0;whiteSpace=wrap;html=1;strokeColor=default;dashed=1;" vertex="1" parent="1">
          <mxGeometry x="4940" y="2890" width="90" height="30" as="geometry" />
        </mxCell>
      </root>
    </mxGraphModel>
  </diagram>
</mxfile>
